<?xml version="1.0" standalone="no"?>
 <!DOCTYPE svg PUBLIC "-//W3C//DTD SVG 1.1//EN" 
 "http://www.w3.org/Graphics/SVG/1.1/DTD/svg11.dtd"> 
<svg
  xmlns:svg="http://www.w3.org/2000/svg"
  xmlns="http://www.w3.org/2000/svg"
  xmlns:xlink="http://www.w3.org/1999/xlink"
  version="1.1"
  width="29.700220cm" height="21.000720cm" viewBox="0 0 116930 82680">
<title>SVG Picture created as midi-looper-F_Fab.svg date 2021/12/28 11:34:13 </title>
  <desc>Picture generated by PCBNEW </desc>
<g style="fill:#000000; fill-opacity:1;stroke:#000000; stroke-opacity:1;
stroke-linecap:round; stroke-linejoin:round;"
 transform="translate(0 0) scale(1 1)">
</g>
<g style="fill:#000000; fill-opacity:0.0; 
stroke:#000000; stroke-width:-0.000393701; stroke-opacity:1; 
stroke-linecap:round; stroke-linejoin:round;">
</g>
<g style="fill:#000000; fill-opacity:0.0; 
stroke:#000000; stroke-width:59.0551; stroke-opacity:1; 
stroke-linecap:round; stroke-linejoin:round;">
<path d="M35440 27770
L38020 28000
" />
<path d="M31180 28800
L31180 28850
" />
<path d="M31490 24890
L31180 28800
" />
<circle cx="48010" cy="48030" r="493.356" /> 
<circle cx="23000" cy="38000" r="465.296" /> 
<circle cx="23000" cy="18000" r="421.9" /> 
<circle cx="47970" cy="18010" r="481.664" /> 
<g transform="rotate(-270 50750 29500)">
<text x="50750" y="29696.9"
textLength="2362.21" font-size="524.934" lengthAdjust="spacingAndGlyphs"
text-anchor="middle" opacity="0">76.2mm</text>
</g>
<path d="M50965 28375
L50965 28637
L50571 28468
" />
<path d="M50965 28956
L50965 28881
L50946 28843
L50928 28825
L50871 28787
L50796 28768
L50646 28768
L50609 28787
L50590 28806
L50571 28843
L50571 28918
L50590 28956
L50609 28975
L50646 28993
L50740 28993
L50778 28975
L50796 28956
L50815 28918
L50815 28843
L50796 28806
L50778 28787
L50740 28768
" />
<path d="M50609 29162
L50590 29181
L50571 29162
L50590 29143
L50609 29162
L50571 29162
" />
<path d="M50928 29331
L50946 29350
L50965 29387
L50965 29481
L50946 29518
L50928 29537
L50890 29556
L50853 29556
L50796 29537
L50571 29312
L50571 29556
" />
<path d="M50571 29724
L50834 29724
" />
<path d="M50796 29724
L50815 29743
L50834 29781
L50834 29837
L50815 29874
L50778 29893
L50571 29893
" />
<path d="M50778 29893
L50815 29912
L50834 29949
L50834 30006
L50815 30043
L50778 30062
L50571 30062
" />
<path d="M50571 30249
L50834 30249
" />
<path d="M50796 30249
L50815 30268
L50834 30306
L50834 30362
L50815 30399
L50778 30418
L50571 30418
" />
<path d="M50778 30418
L50815 30437
L50834 30474
L50834 30531
L50815 30568
L50778 30587
L50571 30587
" />
<text x="27000" y="16196.9"
textLength="2438.98" font-size="524.934" lengthAdjust="spacingAndGlyphs"
text-anchor="middle" opacity="0">63.5mm</text>
<path d="M26081 15784
L26006 15784
L25968 15803
L25950 15821
L25912 15878
L25893 15953
L25893 16103
L25912 16140
L25931 16159
L25968 16178
L26043 16178
L26081 16159
L26100 16140
L26118 16103
L26118 16009
L26100 15971
L26081 15953
L26043 15934
L25968 15934
L25931 15953
L25912 15971
L25893 16009
" />
<path d="M26250 15784
L26493 15784
L26362 15934
L26418 15934
L26456 15953
L26475 15971
L26493 16009
L26493 16103
L26475 16140
L26456 16159
L26418 16178
L26306 16178
L26268 16159
L26250 16140
" />
<path d="M26662 16140
L26681 16159
L26662 16178
L26643 16159
L26662 16140
L26662 16178
" />
<path d="M27037 15784
L26850 15784
L26831 15971
L26850 15953
L26887 15934
L26981 15934
L27018 15953
L27037 15971
L27056 16009
L27056 16103
L27037 16140
L27018 16159
L26981 16178
L26887 16178
L26850 16159
L26831 16140
" />
<path d="M27224 16178
L27224 15915
" />
<path d="M27224 15953
L27243 15934
L27281 15915
L27337 15915
L27374 15934
L27393 15971
L27393 16178
" />
<path d="M27393 15971
L27412 15934
L27449 15915
L27506 15915
L27543 15934
L27562 15971
L27562 16178
" />
<path d="M27749 16178
L27749 15915
" />
<path d="M27749 15953
L27768 15934
L27806 15915
L27862 15915
L27899 15934
L27918 15971
L27918 16178
" />
<path d="M27918 15971
L27937 15934
L27974 15915
L28031 15915
L28068 15934
L28087 15971
L28087 16178
" />
<g transform="rotate(-90 20500 36000)">
<text x="20500" y="36196.9"
textLength="2438.98" font-size="524.934" lengthAdjust="spacingAndGlyphs"
text-anchor="middle" opacity="0">50.8mm</text>
</g>
<path d="M20284 36899
L20284 37087
L20471 37106
L20453 37087
L20434 37049
L20434 36956
L20453 36918
L20471 36899
L20509 36881
L20603 36881
L20640 36899
L20659 36918
L20678 36956
L20678 37049
L20659 37087
L20640 37106
" />
<path d="M20284 36637
L20284 36599
L20303 36562
L20321 36543
L20359 36524
L20434 36506
L20528 36506
L20603 36524
L20640 36543
L20659 36562
L20678 36599
L20678 36637
L20659 36674
L20640 36693
L20603 36712
L20528 36731
L20434 36731
L20359 36712
L20321 36693
L20303 36674
L20284 36637
" />
<path d="M20640 36337
L20659 36318
L20678 36337
L20659 36356
L20640 36337
L20678 36337
" />
<path d="M20453 36093
L20434 36131
L20415 36149
L20378 36168
L20359 36168
L20321 36149
L20303 36131
L20284 36093
L20284 36018
L20303 35981
L20321 35962
L20359 35943
L20378 35943
L20415 35962
L20434 35981
L20453 36018
L20453 36093
L20471 36131
L20490 36149
L20528 36168
L20603 36168
L20640 36149
L20659 36131
L20678 36093
L20678 36018
L20659 35981
L20640 35962
L20603 35943
L20528 35943
L20490 35962
L20471 35981
L20453 36018
" />
<path d="M20678 35775
L20415 35775
" />
<path d="M20453 35775
L20434 35756
L20415 35718
L20415 35662
L20434 35625
L20471 35606
L20678 35606
" />
<path d="M20471 35606
L20434 35587
L20415 35550
L20415 35493
L20434 35456
L20471 35437
L20678 35437
" />
<path d="M20678 35250
L20415 35250
" />
<path d="M20453 35250
L20434 35231
L20415 35193
L20415 35137
L20434 35100
L20471 35081
L20678 35081
" />
<path d="M20471 35081
L20434 35062
L20415 35025
L20415 34968
L20434 34931
L20471 34912
L20678 34912
" />
<g transform="rotate(-90 20000 15000)">
<text x="20000" y="15196.9"
textLength="2438.98" font-size="524.934" lengthAdjust="spacingAndGlyphs"
text-anchor="middle" opacity="0">50.8mm</text>
</g>
<path d="M19784 15899
L19784 16087
L19971 16106
L19953 16087
L19934 16049
L19934 15956
L19953 15918
L19971 15899
L20009 15881
L20103 15881
L20140 15899
L20159 15918
L20178 15956
L20178 16049
L20159 16087
L20140 16106
" />
<path d="M19784 15637
L19784 15599
L19803 15562
L19821 15543
L19859 15524
L19934 15506
L20028 15506
L20103 15524
L20140 15543
L20159 15562
L20178 15599
L20178 15637
L20159 15674
L20140 15693
L20103 15712
L20028 15731
L19934 15731
L19859 15712
L19821 15693
L19803 15674
L19784 15637
" />
<path d="M20140 15337
L20159 15318
L20178 15337
L20159 15356
L20140 15337
L20178 15337
" />
<path d="M19953 15093
L19934 15131
L19915 15149
L19878 15168
L19859 15168
L19821 15149
L19803 15131
L19784 15093
L19784 15018
L19803 14981
L19821 14962
L19859 14943
L19878 14943
L19915 14962
L19934 14981
L19953 15018
L19953 15093
L19971 15131
L19990 15149
L20028 15168
L20103 15168
L20140 15149
L20159 15131
L20178 15093
L20178 15018
L20159 14981
L20140 14962
L20103 14943
L20028 14943
L19990 14962
L19971 14981
L19953 15018
" />
<path d="M20178 14775
L19915 14775
" />
<path d="M19953 14775
L19934 14756
L19915 14718
L19915 14662
L19934 14625
L19971 14606
L20178 14606
" />
<path d="M19971 14606
L19934 14587
L19915 14550
L19915 14493
L19934 14456
L19971 14437
L20178 14437
" />
<path d="M20178 14250
L19915 14250
" />
<path d="M19953 14250
L19934 14231
L19915 14193
L19915 14137
L19934 14100
L19971 14081
L20178 14081
" />
<path d="M19971 14081
L19934 14062
L19915 14025
L19915 13968
L19934 13931
L19971 13912
L20178 13912
" />
</g>
<g style="fill:#000000; fill-opacity:0.0; 
stroke:#000000; stroke-width:39.3701; stroke-opacity:1; 
stroke-linecap:round; stroke-linejoin:round;">
<path d="M40573 18249
L40770 18249
" />
<path d="M40671 18347
L40671 18151
" />
<circle cx="41100" cy="17507.9" r="984.252" /> 
<path d="M33997 18850
L34725 18850
" />
<path d="M36950 18850
L36221 18850
" />
<path d="M34725 19361
L36221 19361
" />
<path d="M34725 18338
L34725 19361
" />
<path d="M36221 18338
L34725 18338
" />
<path d="M36221 19361
L36221 18338
" />
<path d="M25793 21409
L25006 21409
" />
<path d="M25793 21488
L25006 21488
" />
<path d="M25793 21448
L25006 21448
" />
<path d="M25400 23500
L25400 22787
" />
<path d="M25400 20500
L25400 21212
" />
<path d="M25793 22787
L25793 21212
" />
<path d="M25006 22787
L25793 22787
" />
<path d="M25006 21212
L25006 22787
" />
<path d="M25793 21212
L25006 21212
" />
<path d="M25743 31362
L24956 31362
" />
<path d="M24956 31362
L24956 32937
" />
<path d="M24956 32937
L25743 32937
" />
<path d="M25743 32937
L25743 31362
" />
<path d="M25350 30650
L25350 31362
" />
<path d="M25350 33650
L25350 32937
" />
<path d="M25743 31598
L24956 31598
" />
<path d="M25743 31638
L24956 31638
" />
<path d="M25743 31559
L24956 31559
" />
<path d="M25843 26359
L25056 26359
" />
<path d="M25843 26438
L25056 26438
" />
<path d="M25843 26398
L25056 26398
" />
<path d="M25450 28450
L25450 27737
" />
<path d="M25450 25450
L25450 26162
" />
<path d="M25843 27737
L25843 26162
" />
<path d="M25056 27737
L25843 27737
" />
<path d="M25056 26162
L25056 27737
" />
<path d="M25843 26162
L25056 26162
" />
<path d="M40354 22727
L41338 22727
" />
<path d="M40354 21743
L40354 22727
" />
<path d="M43468 21070
L40515 21070
" />
<path d="M43468 22566
L43468 21070
" />
<path d="M40515 22566
L43468 22566
" />
<path d="M40515 21070
L40515 22566
" />
<path d="M43530 24362
L43530 23870
" />
<path d="M43530 23870
L43038 23870
" />
<path d="M43369 24032
L41597 24032
" />
<path d="M41597 24032
L41597 28717
" />
<path d="M41597 28717
L43369 28717
" />
<path d="M43369 28717
L43369 24032
" />
<path d="M21682 53169
L26367 53169
" />
<path d="M21682 51397
L21682 53169
" />
<path d="M26367 51397
L21682 51397
" />
<path d="M26367 53169
L26367 51397
" />
<path d="M26529 53330
L26529 52838
" />
<path d="M26037 53330
L26529 53330
" />
<path d="M40100 27600
L40100 27340
" />
<path d="M40100 24600
L40100 24859
" />
<path d="M40592 27340
L40592 24859
" />
<path d="M39607 27340
L40592 27340
" />
<path d="M39607 24859
L39607 27340
" />
<path d="M40592 24859
L39607 24859
" />
<path d="M40059 29907
L40059 30892
" />
<path d="M40059 30892
L42540 30892
" />
<path d="M42540 30892
L42540 29907
" />
<path d="M42540 29907
L40059 29907
" />
<path d="M39800 30400
L40059 30400
" />
<path d="M42800 30400
L42540 30400
" />
<path d="M33707 23440
L34692 23440
" />
<path d="M34692 23440
L34692 20959
" />
<path d="M34692 20959
L33707 20959
" />
<path d="M33707 20959
L33707 23440
" />
<path d="M34200 23700
L34200 23440
" />
<path d="M34200 20700
L34200 20959
" />
<path d="M35800 25900
L35800 25640
" />
<path d="M35800 22900
L35800 23159
" />
<path d="M36292 25640
L36292 23159
" />
<path d="M35307 25640
L36292 25640
" />
<path d="M35307 23159
L35307 25640
" />
<path d="M36292 23159
L35307 23159
" />
<path d="M33707 27940
L34692 27940
" />
<path d="M34692 27940
L34692 25459
" />
<path d="M34692 25459
L33707 25459
" />
<path d="M33707 25459
L33707 27940
" />
<path d="M34200 28200
L34200 27940
" />
<path d="M34200 25200
L34200 25459
" />
<path d="M36600 29900
L36600 30159
" />
<path d="M36600 32900
L36600 32640
" />
<path d="M36107 30159
L36107 32640
" />
<path d="M37092 30159
L36107 30159
" />
<path d="M37092 32640
L37092 30159
" />
<path d="M36107 32640
L37092 32640
" />
<path d="M42800 33200
L42540 33200
" />
<path d="M39800 33200
L40059 33200
" />
<path d="M42540 32707
L40059 32707
" />
<path d="M42540 33692
L42540 32707
" />
<path d="M40059 33692
L42540 33692
" />
<path d="M40059 32707
L40059 33692
" />
<path d="M33007 32640
L33992 32640
" />
<path d="M33992 32640
L33992 30159
" />
<path d="M33992 30159
L33007 30159
" />
<path d="M33007 30159
L33007 32640
" />
<path d="M33500 32900
L33500 32640
" />
<path d="M33500 29900
L33500 30159
" />
<path d="M39800 39300
L39540 39300
" />
<path d="M36800 39300
L37059 39300
" />
<path d="M39540 38807
L37059 38807
" />
<path d="M39540 39792
L39540 38807
" />
<path d="M37059 39792
L39540 39792
" />
<path d="M37059 38807
L37059 39792
" />
<path d="M35050 29900
L35050 30159
" />
<path d="M35050 32900
L35050 32640
" />
<path d="M34557 30159
L34557 32640
" />
<path d="M35542 30159
L34557 30159
" />
<path d="M35542 32640
L35542 30159
" />
<path d="M34557 32640
L35542 32640
" />
<path d="M40059 34207
L40059 35192
" />
<path d="M40059 35192
L42540 35192
" />
<path d="M42540 35192
L42540 34207
" />
<path d="M42540 34207
L40059 34207
" />
<path d="M39800 34700
L40059 34700
" />
<path d="M42800 34700
L42540 34700
" />
</g>
<g style="fill:#000000; fill-opacity:0.0; 
stroke:#000000; stroke-width:47.2441; stroke-opacity:1; 
stroke-linecap:round; stroke-linejoin:round;">
<circle cx="24052.8" cy="47084.3" r="1181.1" /> 
<path d="M22084 44800
L26414 44800
" />
<path d="M26414 44800
L26414 49367
" />
<path d="M26414 49367
L21690 49367
" />
<path d="M21690 49367
L21690 45233
" />
<path d="M21690 45233
L22084 44800
" />
<path d="M24052 45903
L24052 48265
" />
<path d="M22871 47084
L25233 47084
" />
</g>
<g style="fill:#000000; fill-opacity:0.0; 
stroke:#000000; stroke-width:39.3701; stroke-opacity:1; 
stroke-linecap:round; stroke-linejoin:round;">
<path d="M27050 20243
L27443 19850
" />
<path d="M27050 23850
L27050 20243
" />
<path d="M29550 23850
L27050 23850
" />
<path d="M29550 19850
L29550 23850
" />
<path d="M27443 19850
L29550 19850
" />
<path d="M27493 30000
L29600 30000
" />
<path d="M29600 30000
L29600 34000
" />
<path d="M29600 34000
L27100 34000
" />
<path d="M27100 34000
L27100 30393
" />
<path d="M27100 30393
L27493 30000
" />
<path d="M27100 25193
L27493 24800
" />
<path d="M27100 28800
L27100 25193
" />
<path d="M29600 28800
L27100 28800
" />
<path d="M29600 24800
L29600 28800
" />
<path d="M27493 24800
L29600 24800
" />
<path d="M44768 33000
L44374 32753
" />
<path d="M44374 33246
L44768 33000
" />
<path d="M44374 31051
L44374 33964
" />
<path d="M46638 31051
L44374 31051
" />
<path d="M46638 33964
L46638 31051
" />
<path d="M44374 33964
L46638 33964
" />
<path d="M44868 29200
L44474 28953
" />
<path d="M44474 29446
L44868 29200
" />
<path d="M44474 27251
L44474 30164
" />
<path d="M46738 27251
L44474 27251
" />
<path d="M46738 30164
L46738 27251
" />
<path d="M44474 30164
L46738 30164
" />
<path d="M44474 26364
L46738 26364
" />
<path d="M46738 26364
L46738 23451
" />
<path d="M46738 23451
L44474 23451
" />
<path d="M44474 23451
L44474 26364
" />
<path d="M44474 25646
L44868 25400
" />
<path d="M44868 25400
L44474 25153
" />
<path d="M30400 37450
L30400 36700
" />
<path d="M30400 36700
L37400 36700
" />
<path d="M37400 36700
L37400 37700
" />
<path d="M37400 37700
L30650 37700
" />
<path d="M30650 37700
L30400 37450
" />
<path d="M41762 35569
L41270 35569
" />
<path d="M41270 35569
L41270 36061
" />
<path d="M41432 35730
L41432 37502
" />
<path d="M41432 37502
L44542 37502
" />
<path d="M44542 37502
L44542 35730
" />
<path d="M44542 35730
L41432 35730
" />
<path d="M44542 38530
L41432 38530
" />
<path d="M44542 40302
L44542 38530
" />
<path d="M41432 40302
L44542 40302
" />
<path d="M41432 38530
L41432 40302
" />
<path d="M41270 38369
L41270 38861
" />
<path d="M41762 38369
L41270 38369
" />
<path d="M41762 41169
L41270 41169
" />
<path d="M41270 41169
L41270 41661
" />
<path d="M41432 41330
L41432 43102
" />
<path d="M41432 43102
L44542 43102
" />
<path d="M44542 43102
L44542 41330
" />
<path d="M44542 41330
L41432 41330
" />
<path d="M21774 23464
L24038 23464
" />
<path d="M24038 23464
L24038 20551
" />
<path d="M24038 20551
L21774 20551
" />
<path d="M21774 20551
L21774 23464
" />
<path d="M21774 22746
L22168 22500
" />
<path d="M22168 22500
L21774 22253
" />
<path d="M22168 32900
L21774 32653
" />
<path d="M21774 33146
L22168 32900
" />
<path d="M21774 30951
L21774 33864
" />
<path d="M24038 30951
L21774 30951
" />
<path d="M24038 33864
L24038 30951
" />
<path d="M21774 33864
L24038 33864
" />
<path d="M21774 28264
L24038 28264
" />
<path d="M24038 28264
L24038 25351
" />
<path d="M24038 25351
L21774 25351
" />
<path d="M21774 25351
L21774 28264
" />
<path d="M21774 27546
L22168 27300
" />
<path d="M22168 27300
L21774 27053
" />
<g >
</g>
<g >
</g>
<g >
</g>
<g >
</g>
<g >
</g>
<g >
</g>
<g >
</g>
<g >
</g>
<g >
</g>
<g >
</g>
<g >
</g>
<g >
</g>
<g >
</g>
<g >
</g>
<g >
</g>
<g >
</g>
<g >
</g>
<g >
</g>
<g >
</g>
<g >
</g>
<g >
</g>
<g >
</g>
<g >
</g>
<g >
</g>
<g >
</g>
<g >
</g>
<g >
</g>
<g >
</g>
<g >
</g>
<g >
</g>
<g >
</g>
<g >
</g>
<g >
</g>
<g >
</g>
</g>
<g style="fill:#000000; fill-opacity:0.0; 
stroke:#000000; stroke-width:39.3701; stroke-opacity:1; 
stroke-linecap:round; stroke-linejoin:round;">
</g>
<g style="fill:#000000; fill-opacity:0.0; 
stroke:#000000; stroke-width:59.0551; stroke-opacity:1; 
stroke-linecap:round; stroke-linejoin:round;">
<g transform="rotate(-90 42576.4 17507.9)">
<text x="42576.4" y="17704.7"
textLength="3413.85" font-size="524.934" lengthAdjust="spacingAndGlyphs"
text-anchor="middle" opacity="0">100u chem</text>
</g>
<path d="M42754 18876
L42754 19101
" />
<path d="M42754 18988
L42360 18988
L42417 19026
L42454 19063
L42473 19101
" />
<path d="M42360 18632
L42360 18595
L42379 18557
L42398 18538
L42435 18520
L42510 18501
L42604 18501
L42679 18520
L42716 18538
L42735 18557
L42754 18595
L42754 18632
L42735 18670
L42716 18688
L42679 18707
L42604 18726
L42510 18726
L42435 18707
L42398 18688
L42379 18670
L42360 18632
" />
<path d="M42360 18257
L42360 18220
L42379 18182
L42398 18164
L42435 18145
L42510 18126
L42604 18126
L42679 18145
L42716 18164
L42735 18182
L42754 18220
L42754 18257
L42735 18295
L42716 18314
L42679 18332
L42604 18351
L42510 18351
L42435 18332
L42398 18314
L42379 18295
L42360 18257
" />
<path d="M42492 17789
L42754 17789
" />
<path d="M42492 17957
L42698 17957
L42735 17939
L42754 17901
L42754 17845
L42735 17807
L42716 17789
" />
<path d="M42735 17132
L42754 17170
L42754 17245
L42735 17282
L42716 17301
L42679 17320
L42567 17320
L42529 17301
L42510 17282
L42492 17245
L42492 17170
L42510 17132
" />
<path d="M42754 16964
L42360 16964
" />
<path d="M42754 16795
L42548 16795
L42510 16814
L42492 16851
L42492 16907
L42510 16945
L42529 16964
" />
<path d="M42735 16458
L42754 16495
L42754 16570
L42735 16607
L42698 16626
L42548 16626
L42510 16607
L42492 16570
L42492 16495
L42510 16458
L42548 16439
L42585 16439
L42623 16626
" />
<path d="M42754 16270
L42492 16270
" />
<path d="M42529 16270
L42510 16251
L42492 16214
L42492 16158
L42510 16120
L42548 16101
L42754 16101
" />
<path d="M42548 16101
L42510 16083
L42492 16045
L42492 15989
L42510 15951
L42548 15933
L42754 15933
" />
<g transform="rotate(-90 41100 17507.9)">
<text x="41100" y="17704.7"
textLength="845.426" font-size="524.934" lengthAdjust="spacingAndGlyphs"
text-anchor="middle" opacity="0">C1</text>
</g>
<path d="M41240 17573
L41259 17592
L41278 17648
L41278 17685
L41259 17742
L41221 17779
L41184 17798
L41109 17817
L41053 17817
L40978 17798
L40940 17779
L40903 17742
L40884 17685
L40884 17648
L40903 17592
L40921 17573
" />
<path d="M41278 17198
L41278 17423
" />
<path d="M41278 17311
L40884 17311
L40940 17348
L40978 17386
L40996 17423
" />
<text x="35473.6" y="18094.1"
textLength="3470.1" font-size="524.934" lengthAdjust="spacingAndGlyphs"
text-anchor="middle" opacity="0">0.1u ceram</text>
<path d="M33945 17681
L33983 17681
L34020 17700
L34039 17719
L34058 17756
L34076 17831
L34076 17925
L34058 18000
L34039 18037
L34020 18056
L33983 18075
L33945 18075
L33908 18056
L33889 18037
L33870 18000
L33851 17925
L33851 17831
L33870 17756
L33889 17719
L33908 17700
L33945 17681
" />
<path d="M34245 18037
L34264 18056
L34245 18075
L34226 18056
L34245 18037
L34245 18075
" />
<path d="M34639 18075
L34414 18075
" />
<path d="M34526 18075
L34526 17681
L34489 17737
L34451 17775
L34414 17794
" />
<path d="M34976 17812
L34976 18075
" />
<path d="M34808 17812
L34808 18019
L34826 18056
L34864 18075
L34920 18075
L34958 18056
L34976 18037
" />
<path d="M35632 18056
L35595 18075
L35520 18075
L35482 18056
L35464 18037
L35445 18000
L35445 17887
L35464 17850
L35482 17831
L35520 17812
L35595 17812
L35632 17831
" />
<path d="M35951 18056
L35914 18075
L35839 18075
L35801 18056
L35782 18019
L35782 17869
L35801 17831
L35839 17812
L35914 17812
L35951 17831
L35970 17869
L35970 17906
L35782 17944
" />
<path d="M36139 18075
L36139 17812
" />
<path d="M36139 17887
L36157 17850
L36176 17831
L36214 17812
L36251 17812
" />
<path d="M36551 18075
L36551 17869
L36532 17831
L36495 17812
L36420 17812
L36382 17831
" />
<path d="M36551 18056
L36514 18075
L36420 18075
L36382 18056
L36364 18019
L36364 17981
L36382 17944
L36420 17925
L36514 17925
L36551 17906
" />
<path d="M36739 18075
L36739 17812
" />
<path d="M36739 17850
L36757 17831
L36795 17812
L36851 17812
L36889 17831
L36907 17869
L36907 18075
" />
<path d="M36907 17869
L36926 17831
L36964 17812
L37020 17812
L37057 17831
L37076 17869
L37076 18075
" />
</g>
<g style="fill:#000000; fill-opacity:0.0; 
stroke:#000000; stroke-width:44.8819; stroke-opacity:1; 
stroke-linecap:round; stroke-linejoin:round;">
<text x="35140" y="19209.6"
textLength="660.949" font-size="398.95" lengthAdjust="spacingAndGlyphs"
text-anchor="middle" opacity="0">C2</text>
<path d="M35090 19166
L35075 19181
L35033 19195
L35004 19195
L34961 19181
L34933 19152
L34919 19124
L34904 19067
L34904 19024
L34919 18967
L34933 18938
L34961 18910
L35004 18896
L35033 18896
L35075 18910
L35090 18924
" />
<path d="M35204 18924
L35218 18910
L35246 18896
L35318 18896
L35346 18910
L35360 18924
L35375 18953
L35375 18981
L35360 19024
L35189 19195
L35375 19195
" />
</g>
<g style="fill:#000000; fill-opacity:0.0; 
stroke:#000000; stroke-width:59.0551; stroke-opacity:1; 
stroke-linecap:round; stroke-linejoin:round;">
<g transform="rotate(-90 24620 20980)">
<text x="24620" y="21176.9"
textLength="1970.61" font-size="524.934" lengthAdjust="spacingAndGlyphs"
text-anchor="middle" opacity="0">1N914</text>
</g>
<path d="M24798 21636
L24798 21861
" />
<path d="M24798 21748
L24404 21748
L24460 21786
L24498 21823
L24516 21861
" />
<path d="M24798 21467
L24404 21467
L24798 21242
L24404 21242
" />
<path d="M24798 21036
L24798 20961
L24779 20923
L24760 20905
L24704 20867
L24629 20848
L24479 20848
L24441 20867
L24423 20886
L24404 20923
L24404 20998
L24423 21036
L24441 21054
L24479 21073
L24573 21073
L24610 21054
L24629 21036
L24648 20998
L24648 20923
L24629 20886
L24610 20867
L24573 20848
" />
<path d="M24798 20473
L24798 20698
" />
<path d="M24798 20586
L24404 20586
L24460 20623
L24498 20661
L24516 20698
" />
<path d="M24535 20136
L24798 20136
" />
<path d="M24385 20230
L24666 20323
L24666 20080
" />
</g>
<g style="fill:#000000; fill-opacity:0.0; 
stroke:#000000; stroke-width:47.2441; stroke-opacity:1; 
stroke-linecap:round; stroke-linejoin:round;">
<g transform="rotate(-90 25560 22440)">
<text x="25560" y="22597.5"
textLength="691.695" font-size="419.947" lengthAdjust="spacingAndGlyphs"
text-anchor="middle" opacity="0">D1</text>
</g>
<path d="M25702 22672
L25387 22672
L25387 22597
L25402 22552
L25432 22522
L25462 22507
L25522 22492
L25567 22492
L25627 22507
L25657 22522
L25687 22552
L25702 22597
L25702 22672
" />
<path d="M25702 22192
L25702 22372
" />
<path d="M25702 22282
L25387 22282
L25432 22312
L25462 22342
L25477 22372
" />
</g>
<g style="fill:#000000; fill-opacity:0.0; 
stroke:#000000; stroke-width:59.0551; stroke-opacity:1; 
stroke-linecap:round; stroke-linejoin:round;">
<g transform="rotate(-90 26108.7 20500)">
<text x="26108.7" y="20696.9"
textLength="455.118" font-size="524.934" lengthAdjust="spacingAndGlyphs"
text-anchor="middle" opacity="0">K</text>
</g>
<path d="M26286 20603
L25893 20603
" />
<path d="M26286 20378
L26061 20546
" />
<path d="M25893 20378
L26118 20603
" />
<g transform="rotate(-90 25060 32060)">
<text x="25060" y="32256.9"
textLength="1989.03" font-size="524.934" lengthAdjust="spacingAndGlyphs"
text-anchor="middle" opacity="0">1N914</text>
</g>
<path d="M25238 32716
L25238 32941
" />
<path d="M25238 32828
L24844 32828
L24900 32866
L24938 32903
L24956 32941
" />
<path d="M25238 32547
L24844 32547
L25238 32322
L24844 32322
" />
<path d="M25238 32116
L25238 32041
L25219 32003
L25200 31985
L25144 31947
L25069 31928
L24919 31928
L24881 31947
L24863 31966
L24844 32003
L24844 32078
L24863 32116
L24881 32134
L24919 32153
L25013 32153
L25050 32134
L25069 32116
L25088 32078
L25088 32003
L25069 31966
L25050 31947
L25013 31928
" />
<path d="M25238 31553
L25238 31778
" />
<path d="M25238 31666
L24844 31666
L24900 31703
L24938 31741
L24956 31778
" />
<path d="M24975 31216
L25238 31216
" />
<path d="M24825 31310
L25106 31403
L25106 31160
" />
<g transform="rotate(-90 26058.7 30650)">
<text x="26058.7" y="30846.9"
textLength="470.472" font-size="524.934" lengthAdjust="spacingAndGlyphs"
text-anchor="middle" opacity="0">K</text>
</g>
<path d="M26236 30753
L25843 30753
" />
<path d="M26236 30528
L26011 30696
" />
<path d="M25843 30528
L26068 30753
" />
</g>
<g style="fill:#000000; fill-opacity:0.0; 
stroke:#000000; stroke-width:47.2441; stroke-opacity:1; 
stroke-linecap:round; stroke-linejoin:round;">
<g transform="rotate(-90 25600 32680)">
<text x="25600" y="32837.5"
textLength="691.695" font-size="419.947" lengthAdjust="spacingAndGlyphs"
text-anchor="middle" opacity="0">D2</text>
</g>
<path d="M25742 32912
L25427 32912
L25427 32837
L25442 32792
L25472 32762
L25502 32747
L25562 32732
L25607 32732
L25667 32747
L25697 32762
L25727 32792
L25742 32837
L25742 32912
" />
<path d="M25457 32612
L25442 32597
L25427 32567
L25427 32492
L25442 32462
L25457 32447
L25487 32432
L25517 32432
L25562 32447
L25742 32627
L25742 32432
" />
</g>
<g style="fill:#000000; fill-opacity:0.0; 
stroke:#000000; stroke-width:59.0551; stroke-opacity:1; 
stroke-linecap:round; stroke-linejoin:round;">
<g transform="rotate(-90 25300 27040)">
<text x="25300" y="27236.9"
textLength="1973.68" font-size="524.934" lengthAdjust="spacingAndGlyphs"
text-anchor="middle" opacity="0">1N914</text>
</g>
<path d="M25478 27696
L25478 27921
" />
<path d="M25478 27808
L25084 27808
L25140 27846
L25178 27883
L25196 27921
" />
<path d="M25478 27527
L25084 27527
L25478 27302
L25084 27302
" />
<path d="M25478 27096
L25478 27021
L25459 26983
L25440 26965
L25384 26927
L25309 26908
L25159 26908
L25121 26927
L25103 26946
L25084 26983
L25084 27058
L25103 27096
L25121 27114
L25159 27133
L25253 27133
L25290 27114
L25309 27096
L25328 27058
L25328 26983
L25309 26946
L25290 26927
L25253 26908
" />
<path d="M25478 26533
L25478 26758
" />
<path d="M25478 26646
L25084 26646
L25140 26683
L25178 26721
L25196 26758
" />
<path d="M25215 26196
L25478 26196
" />
<path d="M25065 26290
L25346 26383
L25346 26140
" />
</g>
<g style="fill:#000000; fill-opacity:0.0; 
stroke:#000000; stroke-width:47.2441; stroke-opacity:1; 
stroke-linecap:round; stroke-linejoin:round;">
<g transform="rotate(-90 25450 27068.1)">
<text x="25450" y="27225.6"
textLength="691.695" font-size="419.947" lengthAdjust="spacingAndGlyphs"
text-anchor="middle" opacity="0">D3</text>
</g>
<path d="M25592 27300
L25277 27300
L25277 27225
L25292 27180
L25322 27150
L25352 27135
L25412 27120
L25457 27120
L25517 27135
L25547 27150
L25577 27180
L25592 27225
L25592 27300
" />
<path d="M25277 27015
L25277 26820
L25397 26925
L25397 26880
L25412 26850
L25427 26835
L25457 26820
L25532 26820
L25562 26835
L25577 26850
L25592 26880
L25592 26970
L25577 27000
L25562 27015
" />
</g>
<g style="fill:#000000; fill-opacity:0.0; 
stroke:#000000; stroke-width:59.0551; stroke-opacity:1; 
stroke-linecap:round; stroke-linejoin:round;">
<g transform="rotate(-90 26158.7 25450)">
<text x="26158.7" y="25646.9"
textLength="455.118" font-size="524.934" lengthAdjust="spacingAndGlyphs"
text-anchor="middle" opacity="0">K</text>
</g>
<path d="M26336 25553
L25943 25553
" />
<path d="M26336 25328
L26111 25496
" />
<path d="M25943 25328
L26168 25553
" />
<text x="41660" y="23256.9"
textLength="2176.51" font-size="524.934" lengthAdjust="spacingAndGlyphs"
text-anchor="middle" opacity="0">Batt IN</text>
<path d="M40835 23031
L40891 23050
L40910 23069
L40928 23106
L40928 23163
L40910 23200
L40891 23219
L40853 23238
L40703 23238
L40703 22844
L40835 22844
L40872 22863
L40891 22881
L40910 22919
L40910 22956
L40891 22994
L40872 23013
L40835 23031
L40703 23031
" />
<path d="M41266 23238
L41266 23031
L41247 22994
L41210 22975
L41135 22975
L41097 22994
" />
<path d="M41266 23219
L41228 23238
L41135 23238
L41097 23219
L41078 23181
L41078 23144
L41097 23106
L41135 23088
L41228 23088
L41266 23069
" />
<path d="M41397 22975
L41547 22975
" />
<path d="M41453 22844
L41453 23181
L41472 23219
L41510 23238
L41547 23238
" />
<path d="M41622 22975
L41772 22975
" />
<path d="M41678 22844
L41678 23181
L41697 23219
L41734 23238
L41772 23238
" />
<path d="M42203 23238
L42203 22844
" />
<path d="M42391 23238
L42391 22844
L42616 23238
L42616 22844
" />
<text x="41992.1" y="22487.4"
textLength="751.687" font-size="524.934" lengthAdjust="spacingAndGlyphs"
text-anchor="middle" opacity="0">J4</text>
<path d="M41860 22074
L41860 22356
L41842 22412
L41804 22449
L41748 22468
L41710 22468
" />
<path d="M42217 22206
L42217 22468
" />
<path d="M42123 22056
L42029 22337
L42273 22337
" />
<g transform="rotate(-90 48440 27240)">
<text x="48440" y="27436.9"
textLength="13837.6" font-size="524.934" lengthAdjust="spacingAndGlyphs"
text-anchor="middle" opacity="0">Rot. Enc. Bk/Or:GND - Re:A - Wh:B - Ye:SW</text>
</g>
<path d="M48618 33801
L48430 33932
" />
<path d="M48618 34026
L48224 34026
L48224 33876
L48243 33839
L48261 33820
L48299 33801
L48355 33801
L48393 33820
L48411 33839
L48430 33876
L48430 34026
" />
<path d="M48618 33576
L48599 33614
L48580 33632
L48543 33651
L48430 33651
L48393 33632
L48374 33614
L48355 33576
L48355 33520
L48374 33482
L48393 33464
L48430 33445
L48543 33445
L48580 33464
L48599 33482
L48618 33520
L48618 33576
" />
<path d="M48355 33332
L48355 33183
" />
<path d="M48224 33276
L48561 33276
L48599 33257
L48618 33220
L48618 33183
" />
<path d="M48580 33051
L48599 33033
L48618 33051
L48599 33070
L48580 33051
L48618 33051
" />
<path d="M48411 32564
L48411 32433
" />
<path d="M48618 32376
L48618 32564
L48224 32564
L48224 32376
" />
<path d="M48355 32208
L48618 32208
" />
<path d="M48393 32208
L48374 32189
L48355 32151
L48355 32095
L48374 32058
L48411 32039
L48618 32039
" />
<path d="M48599 31683
L48618 31720
L48618 31795
L48599 31833
L48580 31851
L48543 31870
L48430 31870
L48393 31851
L48374 31833
L48355 31795
L48355 31720
L48374 31683
" />
<path d="M48580 31514
L48599 31495
L48618 31514
L48599 31533
L48580 31514
L48618 31514
" />
<path d="M48411 30895
L48430 30839
L48449 30820
L48486 30802
L48543 30802
L48580 30820
L48599 30839
L48618 30877
L48618 31027
L48224 31027
L48224 30895
L48243 30858
L48261 30839
L48299 30820
L48336 30820
L48374 30839
L48393 30858
L48411 30895
L48411 31027
" />
<path d="M48618 30633
L48224 30633
" />
<path d="M48468 30595
L48618 30483
" />
<path d="M48355 30483
L48505 30633
" />
<path d="M48205 30033
L48711 30370
" />
<path d="M48224 29827
L48224 29752
L48243 29714
L48280 29677
L48355 29658
L48486 29658
L48561 29677
L48599 29714
L48618 29752
L48618 29827
L48599 29864
L48561 29902
L48486 29920
L48355 29920
L48280 29902
L48243 29864
L48224 29827
" />
<path d="M48618 29489
L48355 29489
" />
<path d="M48430 29489
L48393 29470
L48374 29452
L48355 29414
L48355 29377
" />
<path d="M48580 29245
L48599 29227
L48618 29245
L48599 29264
L48580 29245
L48618 29245
" />
<path d="M48374 29245
L48393 29227
L48411 29245
L48393 29264
L48374 29245
L48411 29245
" />
<path d="M48243 28852
L48224 28889
L48224 28946
L48243 29002
L48280 29039
L48318 29058
L48393 29077
L48449 29077
L48524 29058
L48561 29039
L48599 29002
L48618 28946
L48618 28908
L48599 28852
L48580 28833
L48449 28833
L48449 28908
" />
<path d="M48618 28664
L48224 28664
L48618 28439
L48224 28439
" />
<path d="M48618 28252
L48224 28252
L48224 28158
L48243 28102
L48280 28064
L48318 28046
L48393 28027
L48449 28027
L48524 28046
L48561 28064
L48599 28102
L48618 28158
L48618 28252
" />
<path d="M48468 27558
L48468 27258
" />
<path d="M48618 26546
L48430 26677
" />
<path d="M48618 26771
L48224 26771
L48224 26621
L48243 26583
L48261 26565
L48299 26546
L48355 26546
L48393 26565
L48411 26583
L48430 26621
L48430 26771
" />
<path d="M48599 26227
L48618 26265
L48618 26340
L48599 26377
L48561 26396
L48411 26396
L48374 26377
L48355 26340
L48355 26265
L48374 26227
L48411 26208
L48449 26208
L48486 26396
" />
<path d="M48580 26040
L48599 26021
L48618 26040
L48599 26058
L48580 26040
L48618 26040
" />
<path d="M48374 26040
L48393 26021
L48411 26040
L48393 26058
L48374 26040
L48411 26040
" />
<path d="M48505 25871
L48505 25683
" />
<path d="M48618 25908
L48224 25777
L48618 25646
" />
<path d="M48468 25215
L48468 24915
" />
<path d="M48224 24465
L48618 24371
L48336 24296
L48618 24221
L48224 24127
" />
<path d="M48618 23977
L48224 23977
" />
<path d="M48618 23809
L48411 23809
L48374 23827
L48355 23865
L48355 23921
L48374 23959
L48393 23977
" />
<path d="M48580 23621
L48599 23602
L48618 23621
L48599 23640
L48580 23621
L48618 23621
" />
<path d="M48374 23621
L48393 23602
L48411 23621
L48393 23640
L48374 23621
L48411 23621
" />
<path d="M48411 23302
L48430 23246
L48449 23228
L48486 23209
L48543 23209
L48580 23228
L48599 23246
L48618 23284
L48618 23434
L48224 23434
L48224 23302
L48243 23265
L48261 23246
L48299 23228
L48336 23228
L48374 23246
L48393 23265
L48411 23302
L48411 23434
" />
<path d="M48468 22740
L48468 22440
" />
<path d="M48430 21878
L48618 21878
" />
<path d="M48224 22009
L48430 21878
L48224 21746
" />
<path d="M48599 21465
L48618 21503
L48618 21578
L48599 21615
L48561 21634
L48411 21634
L48374 21615
L48355 21578
L48355 21503
L48374 21465
L48411 21446
L48449 21446
L48486 21634
" />
<path d="M48580 21278
L48599 21259
L48618 21278
L48599 21296
L48580 21278
L48618 21278
" />
<path d="M48374 21278
L48393 21259
L48411 21278
L48393 21296
L48374 21278
L48411 21278
" />
<path d="M48599 21109
L48618 21053
L48618 20959
L48599 20922
L48580 20903
L48543 20884
L48505 20884
L48468 20903
L48449 20922
L48430 20959
L48411 21034
L48393 21072
L48374 21090
L48336 21109
L48299 21109
L48261 21090
L48243 21072
L48224 21034
L48224 20940
L48243 20884
" />
<path d="M48224 20753
L48618 20659
L48336 20584
L48618 20509
L48224 20415
" />
<g transform="rotate(-90 42109.4 26374.8)">
<text x="42109.4" y="26571.7"
textLength="751.687" font-size="524.934" lengthAdjust="spacingAndGlyphs"
text-anchor="middle" opacity="0">J9</text>
</g>
<path d="M41893 26506
L42175 26506
L42231 26524
L42268 26562
L42287 26618
L42287 26656
" />
<path d="M42287 26299
L42287 26224
L42268 26187
L42250 26168
L42193 26131
L42118 26112
L41968 26112
L41931 26131
L41912 26149
L41893 26187
L41893 26262
L41912 26299
L41931 26318
L41968 26337
L42062 26337
L42100 26318
L42118 26299
L42137 26262
L42137 26187
L42118 26149
L42100 26131
L42062 26112
" />
<text x="24025.2" y="51122"
textLength="6057.27" font-size="524.934" lengthAdjust="spacingAndGlyphs"
text-anchor="middle" opacity="0">Conn_01x05_Female</text>
<path d="M21353 51065
L21334 51084
L21278 51103
L21241 51103
L21184 51084
L21147 51047
L21128 51009
L21109 50934
L21109 50878
L21128 50803
L21147 50765
L21184 50728
L21241 50709
L21278 50709
L21334 50728
L21353 50747
" />
<path d="M21578 51103
L21541 51084
L21522 51065
L21503 51028
L21503 50915
L21522 50878
L21541 50859
L21578 50840
L21634 50840
L21672 50859
L21691 50878
L21709 50915
L21709 51028
L21691 51065
L21672 51084
L21634 51103
L21578 51103
" />
<path d="M21878 50840
L21878 51103
" />
<path d="M21878 50878
L21897 50859
L21934 50840
L21991 50840
L22028 50859
L22047 50897
L22047 51103
" />
<path d="M22234 50840
L22234 51103
" />
<path d="M22234 50878
L22253 50859
L22291 50840
L22347 50840
L22384 50859
L22403 50897
L22403 51103
" />
<path d="M22497 51140
L22797 51140
" />
<path d="M22965 50709
L23003 50709
L23040 50728
L23059 50747
L23078 50784
L23097 50859
L23097 50953
L23078 51028
L23059 51065
L23040 51084
L23003 51103
L22965 51103
L22928 51084
L22909 51065
L22890 51028
L22872 50953
L22872 50859
L22890 50784
L22909 50747
L22928 50728
L22965 50709
" />
<path d="M23472 51103
L23247 51103
" />
<path d="M23359 51103
L23359 50709
L23322 50765
L23284 50803
L23247 50822
" />
<path d="M23603 51103
L23809 50840
" />
<path d="M23603 50840
L23809 51103
" />
<path d="M24034 50709
L24072 50709
L24109 50728
L24128 50747
L24147 50784
L24165 50859
L24165 50953
L24147 51028
L24128 51065
L24109 51084
L24072 51103
L24034 51103
L23997 51084
L23978 51065
L23959 51028
L23940 50953
L23940 50859
L23959 50784
L23978 50747
L23997 50728
L24034 50709
" />
<path d="M24522 50709
L24334 50709
L24315 50897
L24334 50878
L24372 50859
L24465 50859
L24503 50878
L24522 50897
L24540 50934
L24540 51028
L24522 51065
L24503 51084
L24465 51103
L24372 51103
L24334 51084
L24315 51065
" />
<path d="M24615 51140
L24915 51140
" />
<path d="M25140 50897
L25009 50897
" />
<path d="M25009 51103
L25009 50709
L25196 50709
" />
<path d="M25496 51084
L25459 51103
L25384 51103
L25346 51084
L25328 51047
L25328 50897
L25346 50859
L25384 50840
L25459 50840
L25496 50859
L25515 50897
L25515 50934
L25328 50972
" />
<path d="M25684 51103
L25684 50840
" />
<path d="M25684 50878
L25703 50859
L25740 50840
L25796 50840
L25834 50859
L25853 50897
L25853 51103
" />
<path d="M25853 50897
L25871 50859
L25909 50840
L25965 50840
L26003 50859
L26021 50897
L26021 51103
" />
<path d="M26378 51103
L26378 50897
L26359 50859
L26321 50840
L26246 50840
L26209 50859
" />
<path d="M26378 51084
L26340 51103
L26246 51103
L26209 51084
L26190 51047
L26190 51009
L26209 50972
L26246 50953
L26340 50953
L26378 50934
" />
<path d="M26621 51103
L26584 51084
L26565 51047
L26565 50709
" />
<path d="M26921 51084
L26884 51103
L26809 51103
L26771 51084
L26752 51047
L26752 50897
L26771 50859
L26809 50840
L26884 50840
L26921 50859
L26940 50897
L26940 50934
L26752 50972
" />
<text x="24025.2" y="52106.3"
textLength="1126.64" font-size="524.934" lengthAdjust="spacingAndGlyphs"
text-anchor="middle" opacity="0">J10</text>
<path d="M23706 51693
L23706 51975
L23687 52031
L23650 52068
L23594 52087
L23556 52087
" />
<path d="M24100 52087
L23875 52087
" />
<path d="M23987 52087
L23987 51693
L23950 51750
L23912 51787
L23875 51806
" />
<path d="M24343 51693
L24381 51693
L24418 51712
L24437 51731
L24456 51768
L24475 51843
L24475 51937
L24456 52012
L24437 52050
L24418 52068
L24381 52087
L24343 52087
L24306 52068
L24287 52050
L24268 52012
L24250 51937
L24250 51843
L24268 51768
L24287 51731
L24306 51712
L24343 51693
" />
<g transform="rotate(-90 39900 25580)">
<text x="39900" y="25776.9"
textLength="1145.39" font-size="524.934" lengthAdjust="spacingAndGlyphs"
text-anchor="middle" opacity="0">22k</text>
</g>
<path d="M39721 26039
L39703 26020
L39684 25983
L39684 25889
L39703 25851
L39721 25833
L39759 25814
L39796 25814
L39853 25833
L40078 26058
L40078 25814
" />
<path d="M39721 25664
L39703 25645
L39684 25608
L39684 25514
L39703 25476
L39721 25458
L39759 25439
L39796 25439
L39853 25458
L40078 25683
L40078 25439
" />
<path d="M40078 25270
L39684 25270
" />
<path d="M39928 25233
L40078 25120
" />
<path d="M39815 25120
L39965 25270
" />
<g transform="rotate(-90 40320 26800)">
<text x="40320" y="26996.9"
textLength="845.426" font-size="524.934" lengthAdjust="spacingAndGlyphs"
text-anchor="middle" opacity="0">R1</text>
</g>
<path d="M40498 26865
L40310 26996
" />
<path d="M40498 27090
L40104 27090
L40104 26940
L40123 26903
L40141 26884
L40179 26865
L40235 26865
L40273 26884
L40291 26903
L40310 26940
L40310 27090
" />
<path d="M40498 26490
L40498 26715
" />
<path d="M40498 26603
L40104 26603
L40160 26640
L40198 26678
L40216 26715
" />
<text x="40780" y="30436.9"
textLength="1145.39" font-size="524.934" lengthAdjust="spacingAndGlyphs"
text-anchor="middle" opacity="0">22k</text>
<path d="M40320 30061
L40339 30043
L40376 30024
L40470 30024
L40508 30043
L40526 30061
L40545 30099
L40545 30136
L40526 30193
L40301 30418
L40545 30418
" />
<path d="M40695 30061
L40714 30043
L40751 30024
L40845 30024
L40883 30043
L40901 30061
L40920 30099
L40920 30136
L40901 30193
L40676 30418
L40920 30418
" />
<path d="M41089 30418
L41089 30024
" />
<path d="M41126 30268
L41239 30418
" />
<path d="M41239 30155
L41089 30305
" />
<text x="42000" y="30756.9"
textLength="845.426" font-size="524.934" lengthAdjust="spacingAndGlyphs"
text-anchor="middle" opacity="0">R2</text>
<path d="M41934 30738
L41803 30550
" />
<path d="M41709 30738
L41709 30344
L41859 30344
L41896 30363
L41915 30381
L41934 30419
L41934 30475
L41915 30513
L41896 30531
L41859 30550
L41709 30550
" />
<path d="M42084 30381
L42103 30363
L42140 30344
L42234 30344
L42271 30363
L42290 30381
L42309 30419
L42309 30456
L42290 30513
L42065 30738
L42309 30738
" />
<g transform="rotate(-90 34340 22700)">
<text x="34340" y="22896.9"
textLength="1201.63" font-size="524.934" lengthAdjust="spacingAndGlyphs"
text-anchor="middle" opacity="0">220</text>
</g>
<path d="M34161 23187
L34143 23168
L34124 23131
L34124 23037
L34143 22999
L34161 22981
L34199 22962
L34236 22962
L34293 22981
L34518 23206
L34518 22962
" />
<path d="M34161 22812
L34143 22793
L34124 22756
L34124 22662
L34143 22625
L34161 22606
L34199 22587
L34236 22587
L34293 22606
L34518 22831
L34518 22587
" />
<path d="M34124 22343
L34124 22306
L34143 22268
L34161 22250
L34199 22231
L34274 22212
L34368 22212
L34443 22231
L34480 22250
L34499 22268
L34518 22306
L34518 22343
L34499 22381
L34480 22400
L34443 22418
L34368 22437
L34274 22437
L34199 22418
L34161 22400
L34143 22381
L34124 22343
" />
<g transform="rotate(-90 34000 21560)">
<text x="34000" y="21756.9"
textLength="845.426" font-size="524.934" lengthAdjust="spacingAndGlyphs"
text-anchor="middle" opacity="0">R3</text>
</g>
<path d="M34178 21625
L33990 21756
" />
<path d="M34178 21850
L33784 21850
L33784 21700
L33803 21663
L33821 21644
L33859 21625
L33915 21625
L33953 21644
L33971 21663
L33990 21700
L33990 21850
" />
<path d="M33784 21494
L33784 21250
L33934 21381
L33934 21325
L33953 21288
L33971 21269
L34009 21250
L34103 21250
L34140 21269
L34159 21288
L34178 21325
L34178 21438
L34159 21475
L34140 21494
" />
<g transform="rotate(-90 35980 24840)">
<text x="35980" y="25036.9"
textLength="1201.63" font-size="524.934" lengthAdjust="spacingAndGlyphs"
text-anchor="middle" opacity="0">220</text>
</g>
<path d="M35801 25327
L35783 25308
L35764 25271
L35764 25177
L35783 25139
L35801 25121
L35839 25102
L35876 25102
L35933 25121
L36158 25346
L36158 25102
" />
<path d="M35801 24952
L35783 24933
L35764 24896
L35764 24802
L35783 24765
L35801 24746
L35839 24727
L35876 24727
L35933 24746
L36158 24971
L36158 24727
" />
<path d="M35764 24483
L35764 24446
L35783 24408
L35801 24390
L35839 24371
L35914 24352
L36008 24352
L36083 24371
L36120 24390
L36139 24408
L36158 24446
L36158 24483
L36139 24521
L36120 24540
L36083 24558
L36008 24577
L35914 24577
L35839 24558
L35801 24540
L35783 24521
L35764 24483
" />
<g transform="rotate(-90 35660 23740)">
<text x="35660" y="23936.9"
textLength="845.426" font-size="524.934" lengthAdjust="spacingAndGlyphs"
text-anchor="middle" opacity="0">R4</text>
</g>
<path d="M35838 23805
L35650 23936
" />
<path d="M35838 24030
L35444 24030
L35444 23880
L35463 23843
L35481 23824
L35519 23805
L35575 23805
L35613 23824
L35631 23843
L35650 23880
L35650 24030
" />
<path d="M35575 23468
L35838 23468
" />
<path d="M35425 23561
L35706 23655
L35706 23411
" />
<g transform="rotate(-90 34360 27220)">
<text x="34360" y="27416.9"
textLength="1201.63" font-size="524.934" lengthAdjust="spacingAndGlyphs"
text-anchor="middle" opacity="0">220</text>
</g>
<path d="M34181 27707
L34163 27688
L34144 27651
L34144 27557
L34163 27519
L34181 27501
L34219 27482
L34256 27482
L34313 27501
L34538 27726
L34538 27482
" />
<path d="M34181 27332
L34163 27313
L34144 27276
L34144 27182
L34163 27145
L34181 27126
L34219 27107
L34256 27107
L34313 27126
L34538 27351
L34538 27107
" />
<path d="M34144 26863
L34144 26826
L34163 26788
L34181 26770
L34219 26751
L34294 26732
L34388 26732
L34463 26751
L34500 26770
L34519 26788
L34538 26826
L34538 26863
L34519 26901
L34500 26920
L34463 26938
L34388 26957
L34294 26957
L34219 26938
L34181 26920
L34163 26901
L34144 26863
" />
<g transform="rotate(-90 34040 25960)">
<text x="34040" y="26156.9"
textLength="845.426" font-size="524.934" lengthAdjust="spacingAndGlyphs"
text-anchor="middle" opacity="0">R5</text>
</g>
<path d="M34218 26025
L34030 26156
" />
<path d="M34218 26250
L33824 26250
L33824 26100
L33843 26063
L33861 26044
L33899 26025
L33955 26025
L33993 26044
L34011 26063
L34030 26100
L34030 26250
" />
<path d="M33824 25669
L33824 25856
L34011 25875
L33993 25856
L33974 25819
L33974 25725
L33993 25688
L34011 25669
L34049 25650
L34143 25650
L34180 25669
L34199 25688
L34218 25725
L34218 25819
L34199 25856
L34180 25875
" />
<g transform="rotate(-90 36440 32140)">
<text x="36440" y="32336.9"
textLength="826.678" font-size="524.934" lengthAdjust="spacingAndGlyphs"
text-anchor="middle" opacity="0">10</text>
</g>
<path d="M36618 32214
L36618 32439
" />
<path d="M36618 32327
L36224 32327
L36280 32364
L36318 32402
L36336 32439
" />
<path d="M36224 31971
L36224 31933
L36243 31896
L36261 31877
L36299 31858
L36374 31840
L36468 31840
L36543 31858
L36580 31877
L36599 31896
L36618 31933
L36618 31971
L36599 32008
L36580 32027
L36543 32046
L36468 32065
L36374 32065
L36299 32046
L36261 32027
L36243 32008
L36224 31971
" />
<g transform="rotate(-90 36800 30700)">
<text x="36800" y="30896.9"
textLength="845.426" font-size="524.934" lengthAdjust="spacingAndGlyphs"
text-anchor="middle" opacity="0">R6</text>
</g>
<path d="M36978 30765
L36790 30896
" />
<path d="M36978 30990
L36584 30990
L36584 30840
L36603 30803
L36621 30784
L36659 30765
L36715 30765
L36753 30784
L36771 30803
L36790 30840
L36790 30990
" />
<path d="M36584 30428
L36584 30503
L36603 30540
L36621 30559
L36678 30596
L36753 30615
L36903 30615
L36940 30596
L36959 30578
L36978 30540
L36978 30465
L36959 30428
L36940 30409
L36903 30390
L36809 30390
L36771 30409
L36753 30428
L36734 30465
L36734 30540
L36753 30578
L36771 30596
L36809 30615
" />
<text x="40620" y="33256.9"
textLength="826.678" font-size="524.934" lengthAdjust="spacingAndGlyphs"
text-anchor="middle" opacity="0">33</text>
<path d="M40301 32844
L40545 32844
L40413 32994
L40470 32994
L40507 33013
L40526 33031
L40545 33069
L40545 33163
L40526 33200
L40507 33219
L40470 33238
L40357 33238
L40320 33219
L40301 33200
" />
<path d="M40676 32844
L40919 32844
L40788 32994
L40844 32994
L40882 33013
L40901 33031
L40919 33069
L40919 33163
L40901 33200
L40882 33219
L40844 33238
L40732 33238
L40694 33219
L40676 33200
" />
<text x="42060" y="33536.9"
textLength="845.426" font-size="524.934" lengthAdjust="spacingAndGlyphs"
text-anchor="middle" opacity="0">R7</text>
<path d="M41994 33518
L41863 33330
" />
<path d="M41769 33518
L41769 33124
L41919 33124
L41956 33143
L41975 33161
L41994 33199
L41994 33255
L41975 33293
L41956 33311
L41919 33330
L41769 33330
" />
<path d="M42125 33124
L42388 33124
L42219 33518
" />
<g transform="rotate(-90 33360 32120)">
<text x="33360" y="32316.9"
textLength="826.678" font-size="524.934" lengthAdjust="spacingAndGlyphs"
text-anchor="middle" opacity="0">10</text>
</g>
<path d="M33538 32194
L33538 32419
" />
<path d="M33538 32307
L33144 32307
L33200 32344
L33238 32382
L33256 32419
" />
<path d="M33144 31951
L33144 31913
L33163 31876
L33181 31857
L33219 31838
L33294 31820
L33388 31820
L33463 31838
L33500 31857
L33519 31876
L33538 31913
L33538 31951
L33519 31988
L33500 32007
L33463 32026
L33388 32045
L33294 32045
L33219 32026
L33181 32007
L33163 31988
L33144 31951
" />
<g transform="rotate(-90 33700 30720)">
<text x="33700" y="30916.9"
textLength="845.426" font-size="524.934" lengthAdjust="spacingAndGlyphs"
text-anchor="middle" opacity="0">R8</text>
</g>
<path d="M33878 30785
L33690 30916
" />
<path d="M33878 31010
L33484 31010
L33484 30860
L33503 30823
L33521 30804
L33559 30785
L33615 30785
L33653 30804
L33671 30823
L33690 30860
L33690 31010
" />
<path d="M33653 30560
L33634 30598
L33615 30616
L33578 30635
L33559 30635
L33521 30616
L33503 30598
L33484 30560
L33484 30485
L33503 30448
L33521 30429
L33559 30410
L33578 30410
L33615 30429
L33634 30448
L33653 30485
L33653 30560
L33671 30598
L33690 30616
L33728 30635
L33803 30635
L33840 30616
L33859 30598
L33878 30560
L33878 30485
L33859 30448
L33840 30429
L33803 30410
L33728 30410
L33690 30429
L33671 30448
L33653 30485
" />
<text x="38300" y="40429.9"
textLength="826.678" font-size="524.934" lengthAdjust="spacingAndGlyphs"
text-anchor="middle" opacity="0">33</text>
<path d="M37981 40017
L38225 40017
L38093 40167
L38150 40167
L38187 40186
L38206 40204
L38225 40242
L38225 40336
L38206 40373
L38187 40392
L38150 40411
L38037 40411
L38000 40392
L37981 40373
" />
<path d="M38356 40017
L38599 40017
L38468 40167
L38524 40167
L38562 40186
L38581 40204
L38599 40242
L38599 40336
L38581 40373
L38562 40392
L38524 40411
L38412 40411
L38374 40392
L38356 40373
" />
<text x="38300" y="39496.9"
textLength="845.426" font-size="524.934" lengthAdjust="spacingAndGlyphs"
text-anchor="middle" opacity="0">R9</text>
<path d="M38234 39478
L38103 39290
" />
<path d="M38009 39478
L38009 39084
L38159 39084
L38196 39103
L38215 39121
L38234 39159
L38234 39215
L38215 39253
L38196 39271
L38159 39290
L38009 39290
" />
<path d="M38421 39478
L38496 39478
L38534 39459
L38553 39440
L38590 39384
L38609 39309
L38609 39159
L38590 39121
L38571 39103
L38534 39084
L38459 39084
L38421 39103
L38403 39121
L38384 39159
L38384 39253
L38403 39290
L38421 39309
L38459 39328
L38534 39328
L38571 39309
L38590 39290
L38609 39253
" />
<g transform="rotate(-90 34960 32120)">
<text x="34960" y="32316.9"
textLength="826.678" font-size="524.934" lengthAdjust="spacingAndGlyphs"
text-anchor="middle" opacity="0">10</text>
</g>
<path d="M35138 32194
L35138 32419
" />
<path d="M35138 32307
L34744 32307
L34800 32344
L34838 32382
L34856 32419
" />
<path d="M34744 31951
L34744 31913
L34763 31876
L34781 31857
L34819 31838
L34894 31820
L34988 31820
L35063 31838
L35100 31857
L35119 31876
L35138 31913
L35138 31951
L35119 31988
L35100 32007
L35063 32026
L34988 32045
L34894 32045
L34819 32026
L34781 32007
L34763 31988
L34744 31951
" />
<g transform="rotate(-90 35220 30860)">
<text x="35220" y="31056.9"
textLength="1220.38" font-size="524.934" lengthAdjust="spacingAndGlyphs"
text-anchor="middle" opacity="0">R10</text>
</g>
<path d="M35398 31113
L35210 31244
" />
<path d="M35398 31338
L35004 31338
L35004 31188
L35023 31150
L35041 31131
L35079 31113
L35135 31113
L35173 31131
L35191 31150
L35210 31188
L35210 31338
" />
<path d="M35398 30738
L35398 30963
" />
<path d="M35398 30850
L35004 30850
L35060 30888
L35098 30925
L35116 30963
" />
<path d="M35004 30494
L35004 30456
L35023 30419
L35041 30400
L35079 30381
L35154 30363
L35248 30363
L35323 30381
L35360 30400
L35379 30419
L35398 30456
L35398 30494
L35379 30531
L35360 30550
L35323 30569
L35248 30588
L35154 30588
L35079 30569
L35041 30550
L35023 30531
L35004 30494
" />
<text x="40600" y="34736.9"
textLength="826.678" font-size="524.934" lengthAdjust="spacingAndGlyphs"
text-anchor="middle" opacity="0">33</text>
<path d="M40281 34324
L40525 34324
L40393 34474
L40450 34474
L40487 34493
L40506 34511
L40525 34549
L40525 34643
L40506 34680
L40487 34699
L40450 34718
L40337 34718
L40300 34699
L40281 34680
" />
<path d="M40656 34324
L40899 34324
L40768 34474
L40824 34474
L40862 34493
L40881 34511
L40899 34549
L40899 34643
L40881 34680
L40862 34699
L40824 34718
L40712 34718
L40674 34699
L40656 34680
" />
<text x="41900" y="35096.9"
textLength="1220.38" font-size="524.934" lengthAdjust="spacingAndGlyphs"
text-anchor="middle" opacity="0">R11</text>
<path d="M41646 35078
L41515 34890
" />
<path d="M41421 35078
L41421 34684
L41571 34684
L41609 34703
L41628 34721
L41646 34759
L41646 34815
L41628 34853
L41609 34871
L41571 34890
L41421 34890
" />
<path d="M42021 35078
L41796 35078
" />
<path d="M41909 35078
L41909 34684
L41871 34740
L41834 34778
L41796 34796
" />
<path d="M42396 35078
L42171 35078
" />
<path d="M42284 35078
L42284 34684
L42246 34740
L42209 34778
L42171 34796
" />
<text x="24052.8" y="50391.3"
textLength="6788.43" font-size="524.934" lengthAdjust="spacingAndGlyphs"
text-anchor="middle" opacity="0">Rotary_Encoder_Switch</text>
<path d="M21015 50372
L20884 50185
" />
<path d="M20790 50372
L20790 49978
L20940 49978
L20978 49997
L20996 50016
L21015 50053
L21015 50110
L20996 50147
L20978 50166
L20940 50185
L20790 50185
" />
<path d="M21240 50372
L21203 50353
L21184 50335
L21165 50297
L21165 50185
L21184 50147
L21203 50128
L21240 50110
L21296 50110
L21334 50128
L21353 50147
L21371 50185
L21371 50297
L21353 50335
L21334 50353
L21296 50372
L21240 50372
" />
<path d="M21484 50110
L21634 50110
" />
<path d="M21540 49978
L21540 50316
L21559 50353
L21596 50372
L21634 50372
" />
<path d="M21934 50372
L21934 50166
L21915 50128
L21878 50110
L21803 50110
L21765 50128
" />
<path d="M21934 50353
L21896 50372
L21803 50372
L21765 50353
L21746 50316
L21746 50278
L21765 50241
L21803 50222
L21896 50222
L21934 50203
" />
<path d="M22121 50372
L22121 50110
" />
<path d="M22121 50185
L22140 50147
L22159 50128
L22196 50110
L22234 50110
" />
<path d="M22327 50110
L22421 50372
" />
<path d="M22515 50110
L22421 50372
L22384 50466
L22365 50485
L22327 50503
" />
<path d="M22571 50410
L22871 50410
" />
<path d="M22965 50166
L23096 50166
" />
<path d="M23152 50372
L22965 50372
L22965 49978
L23152 49978
" />
<path d="M23321 50110
L23321 50372
" />
<path d="M23321 50147
L23340 50128
L23377 50110
L23434 50110
L23471 50128
L23490 50166
L23490 50372
" />
<path d="M23846 50353
L23809 50372
L23734 50372
L23696 50353
L23677 50335
L23659 50297
L23659 50185
L23677 50147
L23696 50128
L23734 50110
L23809 50110
L23846 50128
" />
<path d="M24071 50372
L24034 50353
L24015 50335
L23996 50297
L23996 50185
L24015 50147
L24034 50128
L24071 50110
L24127 50110
L24165 50128
L24183 50147
L24202 50185
L24202 50297
L24183 50335
L24165 50353
L24127 50372
L24071 50372
" />
<path d="M24540 50372
L24540 49978
" />
<path d="M24540 50353
L24502 50372
L24427 50372
L24390 50353
L24371 50335
L24352 50297
L24352 50185
L24371 50147
L24390 50128
L24427 50110
L24502 50110
L24540 50128
" />
<path d="M24877 50353
L24840 50372
L24765 50372
L24727 50353
L24708 50316
L24708 50166
L24727 50128
L24765 50110
L24840 50110
L24877 50128
L24896 50166
L24896 50203
L24708 50241
" />
<path d="M25065 50372
L25065 50110
" />
<path d="M25065 50185
L25083 50147
L25102 50128
L25140 50110
L25177 50110
" />
<path d="M25215 50410
L25515 50410
" />
<path d="M25590 50353
L25646 50372
L25740 50372
L25777 50353
L25796 50335
L25815 50297
L25815 50260
L25796 50222
L25777 50203
L25740 50185
L25665 50166
L25627 50147
L25608 50128
L25590 50091
L25590 50053
L25608 50016
L25627 49997
L25665 49978
L25758 49978
L25815 49997
" />
<path d="M25946 50110
L26021 50372
L26096 50185
L26171 50372
L26246 50110
" />
<path d="M26396 50372
L26396 50110
" />
<path d="M26396 49978
L26377 49997
L26396 50016
L26414 49997
L26396 49978
L26396 50016
" />
<path d="M26527 50110
L26677 50110
" />
<path d="M26583 49978
L26583 50316
L26602 50353
L26639 50372
L26677 50372
" />
<path d="M26977 50353
L26939 50372
L26864 50372
L26827 50353
L26808 50335
L26789 50297
L26789 50185
L26808 50147
L26827 50128
L26864 50110
L26939 50110
L26977 50128
" />
<path d="M27146 50372
L27146 49978
" />
<path d="M27314 50372
L27314 50166
L27296 50128
L27258 50110
L27202 50110
L27164 50128
L27146 50147
" />
<text x="25470.1" y="48777.2"
textLength="1276.62" font-size="524.934" lengthAdjust="spacingAndGlyphs"
text-anchor="middle" opacity="0">SW1</text>
<path d="M24945 48739
L25001 48758
L25095 48758
L25132 48739
L25151 48720
L25170 48683
L25170 48645
L25151 48608
L25132 48589
L25095 48570
L25020 48552
L24982 48533
L24963 48514
L24945 48477
L24945 48439
L24963 48402
L24982 48383
L25020 48364
L25113 48364
L25170 48383
" />
<path d="M25301 48364
L25395 48758
L25470 48477
L25545 48758
L25638 48364
" />
<path d="M25995 48758
L25770 48758
" />
<path d="M25882 48758
L25882 48364
L25845 48420
L25807 48458
L25770 48477
" />
<text x="28300" y="24464.2"
textLength="1989.03" font-size="524.934" lengthAdjust="spacingAndGlyphs"
text-anchor="middle" opacity="0">6N138</text>
<path d="M27606 24051
L27531 24051
L27493 24070
L27475 24089
L27437 24145
L27418 24220
L27418 24370
L27437 24407
L27456 24426
L27493 24445
L27568 24445
L27606 24426
L27625 24407
L27643 24370
L27643 24276
L27625 24239
L27606 24220
L27568 24201
L27493 24201
L27456 24220
L27437 24239
L27418 24276
" />
<path d="M27812 24445
L27812 24051
L28037 24445
L28037 24051
" />
<path d="M28431 24445
L28206 24445
" />
<path d="M28318 24445
L28318 24051
L28281 24107
L28243 24145
L28206 24164
" />
<path d="M28562 24051
L28806 24051
L28674 24201
L28731 24201
L28768 24220
L28787 24239
L28806 24276
L28806 24370
L28787 24407
L28768 24426
L28731 24445
L28618 24445
L28581 24426
L28562 24407
" />
<path d="M29031 24220
L28993 24201
L28974 24182
L28956 24145
L28956 24126
L28974 24089
L28993 24070
L29031 24051
L29106 24051
L29143 24070
L29162 24089
L29181 24126
L29181 24145
L29162 24182
L29143 24201
L29106 24220
L29031 24220
L28993 24239
L28974 24257
L28956 24295
L28956 24370
L28974 24407
L28993 24426
L29031 24445
L29106 24445
L29143 24426
L29162 24407
L29181 24370
L29181 24295
L29162 24257
L29143 24239
L29106 24220
" />
<text x="28300" y="22046.9"
textLength="864.173" font-size="524.934" lengthAdjust="spacingAndGlyphs"
text-anchor="middle" opacity="0">U1</text>
<path d="M28000 21634
L28000 21953
L28018 21990
L28037 22009
L28075 22028
L28150 22028
L28187 22009
L28206 21990
L28225 21953
L28225 21634
" />
<path d="M28618 22028
L28393 22028
" />
<path d="M28506 22028
L28506 21634
L28468 21690
L28431 21728
L28393 21746
" />
<text x="28350" y="34614.2"
textLength="1989.03" font-size="524.934" lengthAdjust="spacingAndGlyphs"
text-anchor="middle" opacity="0">6N138</text>
<path d="M27656 34201
L27581 34201
L27543 34220
L27525 34239
L27487 34295
L27468 34370
L27468 34520
L27487 34557
L27506 34576
L27543 34595
L27618 34595
L27656 34576
L27675 34557
L27693 34520
L27693 34426
L27675 34389
L27656 34370
L27618 34351
L27543 34351
L27506 34370
L27487 34389
L27468 34426
" />
<path d="M27862 34595
L27862 34201
L28087 34595
L28087 34201
" />
<path d="M28481 34595
L28256 34595
" />
<path d="M28368 34595
L28368 34201
L28331 34257
L28293 34295
L28256 34314
" />
<path d="M28612 34201
L28856 34201
L28724 34351
L28781 34351
L28818 34370
L28837 34389
L28856 34426
L28856 34520
L28837 34557
L28818 34576
L28781 34595
L28668 34595
L28631 34576
L28612 34557
" />
<path d="M29081 34370
L29043 34351
L29024 34332
L29006 34295
L29006 34276
L29024 34239
L29043 34220
L29081 34201
L29156 34201
L29193 34220
L29212 34239
L29231 34276
L29231 34295
L29212 34332
L29193 34351
L29156 34370
L29081 34370
L29043 34389
L29024 34407
L29006 34445
L29006 34520
L29024 34557
L29043 34576
L29081 34595
L29156 34595
L29193 34576
L29212 34557
L29231 34520
L29231 34445
L29212 34407
L29193 34389
L29156 34370
" />
<text x="28350" y="32196.9"
textLength="864.173" font-size="524.934" lengthAdjust="spacingAndGlyphs"
text-anchor="middle" opacity="0">U3</text>
<path d="M28050 31784
L28050 32103
L28068 32140
L28087 32159
L28125 32178
L28200 32178
L28237 32159
L28256 32140
L28275 32103
L28275 31784
" />
<path d="M28424 31784
L28668 31784
L28537 31934
L28593 31934
L28631 31953
L28649 31971
L28668 32009
L28668 32103
L28649 32140
L28631 32159
L28593 32178
L28481 32178
L28443 32159
L28424 32140
" />
<text x="28350" y="29414.2"
textLength="1989.03" font-size="524.934" lengthAdjust="spacingAndGlyphs"
text-anchor="middle" opacity="0">6N138</text>
<path d="M27656 29001
L27581 29001
L27543 29020
L27525 29039
L27487 29095
L27468 29170
L27468 29320
L27487 29357
L27506 29376
L27543 29395
L27618 29395
L27656 29376
L27675 29357
L27693 29320
L27693 29226
L27675 29189
L27656 29170
L27618 29151
L27543 29151
L27506 29170
L27487 29189
L27468 29226
" />
<path d="M27862 29395
L27862 29001
L28087 29395
L28087 29001
" />
<path d="M28481 29395
L28256 29395
" />
<path d="M28368 29395
L28368 29001
L28331 29057
L28293 29095
L28256 29114
" />
<path d="M28612 29001
L28856 29001
L28724 29151
L28781 29151
L28818 29170
L28837 29189
L28856 29226
L28856 29320
L28837 29357
L28818 29376
L28781 29395
L28668 29395
L28631 29376
L28612 29357
" />
<path d="M29081 29170
L29043 29151
L29024 29132
L29006 29095
L29006 29076
L29024 29039
L29043 29020
L29081 29001
L29156 29001
L29193 29020
L29212 29039
L29231 29076
L29231 29095
L29212 29132
L29193 29151
L29156 29170
L29081 29170
L29043 29189
L29024 29207
L29006 29245
L29006 29320
L29024 29357
L29043 29376
L29081 29395
L29156 29395
L29193 29376
L29212 29357
L29231 29320
L29231 29245
L29212 29207
L29193 29189
L29156 29170
" />
<text x="28350" y="26996.9"
textLength="864.173" font-size="524.934" lengthAdjust="spacingAndGlyphs"
text-anchor="middle" opacity="0">U4</text>
<path d="M28050 26584
L28050 26903
L28068 26940
L28087 26959
L28125 26978
L28200 26978
L28237 26959
L28256 26940
L28275 26903
L28275 26584
" />
<path d="M28631 26715
L28631 26978
" />
<path d="M28537 26565
L28443 26846
L28687 26846
" />
<g transform="rotate(-90 47111 32507.9)">
<text x="47111" y="32704.7"
textLength="1276.62" font-size="524.934" lengthAdjust="spacingAndGlyphs"
text-anchor="middle" opacity="0">SW1</text>
</g>
<path d="M47270 33032
L47289 32976
L47289 32882
L47270 32845
L47251 32826
L47214 32807
L47176 32807
L47139 32826
L47120 32845
L47101 32882
L47082 32957
L47064 32995
L47045 33014
L47007 33032
L46970 33032
L46932 33014
L46914 32995
L46895 32957
L46895 32864
L46914 32807
" />
<path d="M46895 32676
L47289 32582
L47007 32507
L47289 32432
L46895 32339
" />
<path d="M47289 31982
L47289 32207
" />
<path d="M47289 32095
L46895 32095
L46951 32132
L46989 32170
L47007 32207
" />
<g transform="rotate(-90 46363 32507.9)">
<text x="46363" y="32704.7"
textLength="751.687" font-size="524.934" lengthAdjust="spacingAndGlyphs"
text-anchor="middle" opacity="0">J1</text>
</g>
<path d="M46147 32639
L46428 32639
L46484 32657
L46522 32695
L46541 32751
L46541 32789
" />
<path d="M46541 32245
L46541 32470
" />
<path d="M46541 32357
L46147 32357
L46203 32395
L46241 32432
L46259 32470
" />
<g transform="rotate(-90 47211 28707.9)">
<text x="47211" y="28904.7"
textLength="1276.62" font-size="524.934" lengthAdjust="spacingAndGlyphs"
text-anchor="middle" opacity="0">SW2</text>
</g>
<path d="M47370 29232
L47389 29176
L47389 29082
L47370 29045
L47351 29026
L47314 29007
L47276 29007
L47239 29026
L47220 29045
L47201 29082
L47182 29157
L47164 29195
L47145 29214
L47107 29232
L47070 29232
L47032 29214
L47014 29195
L46995 29157
L46995 29064
L47014 29007
" />
<path d="M46995 28876
L47389 28782
L47107 28707
L47389 28632
L46995 28539
" />
<path d="M47032 28407
L47014 28389
L46995 28351
L46995 28257
L47014 28220
L47032 28201
L47070 28182
L47107 28182
L47164 28201
L47389 28426
L47389 28182
" />
<g transform="rotate(-90 46463 28707.9)">
<text x="46463" y="28904.7"
textLength="751.687" font-size="524.934" lengthAdjust="spacingAndGlyphs"
text-anchor="middle" opacity="0">J2</text>
</g>
<path d="M46247 28839
L46528 28839
L46584 28857
L46622 28895
L46641 28951
L46641 28989
" />
<path d="M46284 28670
L46266 28651
L46247 28614
L46247 28520
L46266 28482
L46284 28464
L46322 28445
L46359 28445
L46416 28464
L46641 28689
L46641 28445
" />
<g transform="rotate(-90 47211 24907.9)">
<text x="47211" y="25104.7"
textLength="1276.62" font-size="524.934" lengthAdjust="spacingAndGlyphs"
text-anchor="middle" opacity="0">SW3</text>
</g>
<path d="M47370 25432
L47389 25376
L47389 25282
L47370 25245
L47351 25226
L47314 25207
L47276 25207
L47239 25226
L47220 25245
L47201 25282
L47182 25357
L47164 25395
L47145 25414
L47107 25432
L47070 25432
L47032 25414
L47014 25395
L46995 25357
L46995 25264
L47014 25207
" />
<path d="M46995 25076
L47389 24982
L47107 24907
L47389 24832
L46995 24739
" />
<path d="M46995 24626
L46995 24382
L47145 24514
L47145 24457
L47164 24420
L47182 24401
L47220 24382
L47314 24382
L47351 24401
L47370 24420
L47389 24457
L47389 24570
L47370 24607
L47351 24626
" />
<g transform="rotate(-90 46463 24907.9)">
<text x="46463" y="25104.7"
textLength="751.687" font-size="524.934" lengthAdjust="spacingAndGlyphs"
text-anchor="middle" opacity="0">J3</text>
</g>
<path d="M46247 25039
L46528 25039
L46584 25057
L46622 25095
L46641 25151
L46641 25189
" />
<path d="M46247 24889
L46247 24645
L46397 24776
L46397 24720
L46416 24682
L46434 24664
L46472 24645
L46566 24645
L46603 24664
L46622 24682
L46641 24720
L46641 24832
L46622 24870
L46603 24889
" />
<text x="32980" y="36176.9"
textLength="3976.28" font-size="524.934" lengthAdjust="spacingAndGlyphs"
text-anchor="middle" opacity="0">SSD1306 SPI</text>
<path d="M31105 36139
L31161 36158
L31255 36158
L31292 36139
L31311 36120
L31330 36083
L31330 36045
L31311 36008
L31292 35989
L31255 35970
L31180 35951
L31142 35933
L31123 35914
L31105 35876
L31105 35839
L31123 35801
L31142 35783
L31180 35764
L31273 35764
L31330 35783
" />
<path d="M31480 36139
L31536 36158
L31630 36158
L31667 36139
L31686 36120
L31705 36083
L31705 36045
L31686 36008
L31667 35989
L31630 35970
L31555 35951
L31517 35933
L31498 35914
L31480 35876
L31480 35839
L31498 35801
L31517 35783
L31555 35764
L31648 35764
L31705 35783
" />
<path d="M31873 36158
L31873 35764
L31967 35764
L32023 35783
L32061 35820
L32080 35858
L32098 35933
L32098 35989
L32080 36064
L32061 36101
L32023 36139
L31967 36158
L31873 36158
" />
<path d="M32473 36158
L32248 36158
" />
<path d="M32361 36158
L32361 35764
L32323 35820
L32286 35858
L32248 35876
" />
<path d="M32605 35764
L32848 35764
L32717 35914
L32773 35914
L32811 35933
L32830 35951
L32848 35989
L32848 36083
L32830 36120
L32811 36139
L32773 36158
L32661 36158
L32623 36139
L32605 36120
" />
<path d="M33092 35764
L33129 35764
L33167 35783
L33186 35801
L33204 35839
L33223 35914
L33223 36008
L33204 36083
L33186 36120
L33167 36139
L33129 36158
L33092 36158
L33054 36139
L33036 36120
L33017 36083
L32998 36008
L32998 35914
L33017 35839
L33036 35801
L33054 35783
L33092 35764
" />
<path d="M33561 35764
L33486 35764
L33448 35783
L33429 35801
L33392 35858
L33373 35933
L33373 36083
L33392 36120
L33411 36139
L33448 36158
L33523 36158
L33561 36139
L33579 36120
L33598 36083
L33598 35989
L33579 35951
L33561 35933
L33523 35914
L33448 35914
L33411 35933
L33392 35951
L33373 35989
" />
<path d="M34048 36139
L34104 36158
L34198 36158
L34236 36139
L34254 36120
L34273 36083
L34273 36045
L34254 36008
L34236 35989
L34198 35970
L34123 35951
L34086 35933
L34067 35914
L34048 35876
L34048 35839
L34067 35801
L34086 35783
L34123 35764
L34217 35764
L34273 35783
" />
<path d="M34442 36158
L34442 35764
L34592 35764
L34629 35783
L34648 35801
L34667 35839
L34667 35895
L34648 35933
L34629 35951
L34592 35970
L34442 35970
" />
<path d="M34836 36158
L34836 35764
" />
<text x="33900" y="37396.9"
textLength="751.687" font-size="524.934" lengthAdjust="spacingAndGlyphs"
text-anchor="middle" opacity="0">J5</text>
<path d="M33768 36984
L33768 37265
L33750 37321
L33712 37359
L33656 37378
L33618 37378
" />
<path d="M34143 36984
L33956 36984
L33937 37171
L33956 37153
L33993 37134
L34087 37134
L34124 37153
L34143 37171
L34162 37209
L34162 37303
L34143 37340
L34124 37359
L34087 37378
L33993 37378
L33956 37359
L33937 37340
" />
<text x="43480" y="38176.9"
textLength="7238.38" font-size="524.934" lengthAdjust="spacingAndGlyphs"
text-anchor="middle" opacity="0">MIDI OUT 1 -Y:M5 R:M4</text>
<path d="M39992 38158
L39992 37764
L40124 38045
L40255 37764
L40255 38158
" />
<path d="M40442 38158
L40442 37764
" />
<path d="M40630 38158
L40630 37764
L40724 37764
L40780 37783
L40817 37820
L40836 37858
L40855 37933
L40855 37989
L40836 38064
L40817 38101
L40780 38139
L40724 38158
L40630 38158
" />
<path d="M41024 38158
L41024 37764
" />
<path d="M41586 37764
L41661 37764
L41698 37783
L41736 37820
L41755 37895
L41755 38026
L41736 38101
L41698 38139
L41661 38158
L41586 38158
L41548 38139
L41511 38101
L41492 38026
L41492 37895
L41511 37820
L41548 37783
L41586 37764
" />
<path d="M41923 37764
L41923 38083
L41942 38120
L41961 38139
L41998 38158
L42073 38158
L42111 38139
L42130 38120
L42148 38083
L42148 37764
" />
<path d="M42280 37764
L42505 37764
" />
<path d="M42392 38158
L42392 37764
" />
<path d="M43142 38158
L42917 38158
" />
<path d="M43030 38158
L43030 37764
L42992 37820
L42955 37858
L42917 37876
" />
<path d="M43611 38008
L43911 38008
" />
<path d="M44173 37970
L44173 38158
" />
<path d="M44042 37764
L44173 37970
L44304 37764
" />
<path d="M44436 38120
L44454 38139
L44436 38158
L44417 38139
L44436 38120
L44436 38158
" />
<path d="M44436 37914
L44454 37933
L44436 37951
L44417 37933
L44436 37914
L44436 37951
" />
<path d="M44623 38158
L44623 37764
L44754 38045
L44886 37764
L44886 38158
" />
<path d="M45261 37764
L45073 37764
L45054 37951
L45073 37933
L45111 37914
L45204 37914
L45242 37933
L45261 37951
L45279 37989
L45279 38083
L45261 38120
L45242 38139
L45204 38158
L45111 38158
L45073 38139
L45054 38120
" />
<path d="M45973 38158
L45842 37970
" />
<path d="M45748 38158
L45748 37764
L45898 37764
L45935 37783
L45954 37801
L45973 37839
L45973 37895
L45954 37933
L45935 37951
L45898 37970
L45748 37970
" />
<path d="M46142 38120
L46160 38139
L46142 38158
L46123 38139
L46142 38120
L46142 38158
" />
<path d="M46142 37914
L46160 37933
L46142 37951
L46123 37933
L46142 37914
L46142 37951
" />
<path d="M46329 38158
L46329 37764
L46460 38045
L46592 37764
L46592 38158
" />
<path d="M46948 37895
L46948 38158
" />
<path d="M46854 37745
L46760 38026
L47004 38026
" />
<text x="42987.4" y="37187.4"
textLength="751.687" font-size="524.934" lengthAdjust="spacingAndGlyphs"
text-anchor="middle" opacity="0">J6</text>
<path d="M42856 36774
L42856 37056
L42837 37112
L42799 37149
L42743 37168
L42706 37168
" />
<path d="M43212 36774
L43137 36774
L43099 36793
L43081 36812
L43043 36868
L43024 36943
L43024 37093
L43043 37131
L43062 37149
L43099 37168
L43174 37168
L43212 37149
L43231 37131
L43249 37093
L43249 36999
L43231 36962
L43212 36943
L43174 36924
L43099 36924
L43062 36943
L43043 36962
L43024 36999
" />
<text x="42920" y="40996.9"
textLength="7238.38" font-size="524.934" lengthAdjust="spacingAndGlyphs"
text-anchor="middle" opacity="0">MIDI OUT 2 -Y:M5 R:M4</text>
<path d="M39432 40978
L39432 40584
L39564 40865
L39695 40584
L39695 40978
" />
<path d="M39882 40978
L39882 40584
" />
<path d="M40070 40978
L40070 40584
L40164 40584
L40220 40603
L40257 40640
L40276 40678
L40295 40753
L40295 40809
L40276 40884
L40257 40921
L40220 40959
L40164 40978
L40070 40978
" />
<path d="M40464 40978
L40464 40584
" />
<path d="M41026 40584
L41101 40584
L41138 40603
L41176 40640
L41195 40715
L41195 40846
L41176 40921
L41138 40959
L41101 40978
L41026 40978
L40988 40959
L40951 40921
L40932 40846
L40932 40715
L40951 40640
L40988 40603
L41026 40584
" />
<path d="M41363 40584
L41363 40903
L41382 40940
L41401 40959
L41438 40978
L41513 40978
L41551 40959
L41570 40940
L41588 40903
L41588 40584
" />
<path d="M41720 40584
L41945 40584
" />
<path d="M41832 40978
L41832 40584
" />
<path d="M42357 40621
L42376 40603
L42413 40584
L42507 40584
L42545 40603
L42563 40621
L42582 40659
L42582 40696
L42563 40753
L42338 40978
L42582 40978
" />
<path d="M43051 40828
L43351 40828
" />
<path d="M43613 40790
L43613 40978
" />
<path d="M43482 40584
L43613 40790
L43744 40584
" />
<path d="M43876 40940
L43894 40959
L43876 40978
L43857 40959
L43876 40940
L43876 40978
" />
<path d="M43876 40734
L43894 40753
L43876 40771
L43857 40753
L43876 40734
L43876 40771
" />
<path d="M44063 40978
L44063 40584
L44194 40865
L44326 40584
L44326 40978
" />
<path d="M44701 40584
L44513 40584
L44494 40771
L44513 40753
L44551 40734
L44644 40734
L44682 40753
L44701 40771
L44719 40809
L44719 40903
L44701 40940
L44682 40959
L44644 40978
L44551 40978
L44513 40959
L44494 40940
" />
<path d="M45413 40978
L45282 40790
" />
<path d="M45188 40978
L45188 40584
L45338 40584
L45375 40603
L45394 40621
L45413 40659
L45413 40715
L45394 40753
L45375 40771
L45338 40790
L45188 40790
" />
<path d="M45582 40940
L45600 40959
L45582 40978
L45563 40959
L45582 40940
L45582 40978
" />
<path d="M45582 40734
L45600 40753
L45582 40771
L45563 40753
L45582 40734
L45582 40771
" />
<path d="M45769 40978
L45769 40584
L45900 40865
L46032 40584
L46032 40978
" />
<path d="M46388 40715
L46388 40978
" />
<path d="M46294 40565
L46200 40846
L46444 40846
" />
<text x="42987.4" y="39987.4"
textLength="751.687" font-size="524.934" lengthAdjust="spacingAndGlyphs"
text-anchor="middle" opacity="0">J7</text>
<path d="M42856 39574
L42856 39856
L42837 39912
L42799 39949
L42743 39968
L42706 39968
" />
<path d="M43006 39574
L43268 39574
L43099 39968
" />
<text x="42980" y="44016.9"
textLength="7238.38" font-size="524.934" lengthAdjust="spacingAndGlyphs"
text-anchor="middle" opacity="0">MIDI OUT 3 -Y:M5 R:M4</text>
<path d="M39492 43998
L39492 43604
L39624 43885
L39755 43604
L39755 43998
" />
<path d="M39942 43998
L39942 43604
" />
<path d="M40130 43998
L40130 43604
L40224 43604
L40280 43623
L40317 43660
L40336 43698
L40355 43773
L40355 43829
L40336 43904
L40317 43941
L40280 43979
L40224 43998
L40130 43998
" />
<path d="M40524 43998
L40524 43604
" />
<path d="M41086 43604
L41161 43604
L41198 43623
L41236 43660
L41255 43735
L41255 43866
L41236 43941
L41198 43979
L41161 43998
L41086 43998
L41048 43979
L41011 43941
L40992 43866
L40992 43735
L41011 43660
L41048 43623
L41086 43604
" />
<path d="M41423 43604
L41423 43923
L41442 43960
L41461 43979
L41498 43998
L41573 43998
L41611 43979
L41630 43960
L41648 43923
L41648 43604
" />
<path d="M41780 43604
L42005 43604
" />
<path d="M41892 43998
L41892 43604
" />
<path d="M42398 43604
L42642 43604
L42511 43754
L42567 43754
L42605 43773
L42623 43791
L42642 43829
L42642 43923
L42623 43960
L42605 43979
L42567 43998
L42455 43998
L42417 43979
L42398 43960
" />
<path d="M43111 43848
L43411 43848
" />
<path d="M43673 43810
L43673 43998
" />
<path d="M43542 43604
L43673 43810
L43804 43604
" />
<path d="M43936 43960
L43954 43979
L43936 43998
L43917 43979
L43936 43960
L43936 43998
" />
<path d="M43936 43754
L43954 43773
L43936 43791
L43917 43773
L43936 43754
L43936 43791
" />
<path d="M44123 43998
L44123 43604
L44254 43885
L44386 43604
L44386 43998
" />
<path d="M44761 43604
L44573 43604
L44554 43791
L44573 43773
L44611 43754
L44704 43754
L44742 43773
L44761 43791
L44779 43829
L44779 43923
L44761 43960
L44742 43979
L44704 43998
L44611 43998
L44573 43979
L44554 43960
" />
<path d="M45473 43998
L45342 43810
" />
<path d="M45248 43998
L45248 43604
L45398 43604
L45435 43623
L45454 43641
L45473 43679
L45473 43735
L45454 43773
L45435 43791
L45398 43810
L45248 43810
" />
<path d="M45642 43960
L45660 43979
L45642 43998
L45623 43979
L45642 43960
L45642 43998
" />
<path d="M45642 43754
L45660 43773
L45642 43791
L45623 43773
L45642 43754
L45642 43791
" />
<path d="M45829 43998
L45829 43604
L45960 43885
L46092 43604
L46092 43998
" />
<path d="M46448 43735
L46448 43998
" />
<path d="M46354 43585
L46260 43866
L46504 43866
" />
<text x="42987.4" y="42787.4"
textLength="751.687" font-size="524.934" lengthAdjust="spacingAndGlyphs"
text-anchor="middle" opacity="0">J8</text>
<path d="M42856 42374
L42856 42656
L42837 42712
L42799 42749
L42743 42768
L42706 42768
" />
<path d="M43099 42543
L43062 42524
L43043 42506
L43024 42468
L43024 42449
L43043 42412
L43062 42393
L43099 42374
L43174 42374
L43212 42393
L43231 42412
L43249 42449
L43249 42468
L43231 42506
L43212 42524
L43174 42543
L43099 42543
L43062 42562
L43043 42581
L43024 42618
L43024 42693
L43043 42731
L43062 42749
L43099 42768
L43174 42768
L43212 42749
L43231 42731
L43249 42693
L43249 42618
L43231 42581
L43212 42562
L43174 42543
" />
<g transform="rotate(-90 21380 22100)">
<text x="21380" y="22296.9"
textLength="7388.36" font-size="524.934" lengthAdjust="spacingAndGlyphs"
text-anchor="middle" opacity="0">MIDI IN 1 - Bk:M5 R:M4</text>
</g>
<path d="M21558 25662
L21164 25662
L21445 25530
L21164 25399
L21558 25399
" />
<path d="M21558 25212
L21164 25212
" />
<path d="M21558 25024
L21164 25024
L21164 24930
L21183 24874
L21220 24837
L21258 24818
L21333 24799
L21389 24799
L21464 24818
L21501 24837
L21539 24874
L21558 24930
L21558 25024
" />
<path d="M21558 24630
L21164 24630
" />
<path d="M21558 24143
L21164 24143
" />
<path d="M21558 23956
L21164 23956
L21558 23731
L21164 23731
" />
<path d="M21558 23037
L21558 23262
" />
<path d="M21558 23149
L21164 23149
L21220 23187
L21258 23224
L21276 23262
" />
<path d="M21408 22568
L21408 22268
" />
<path d="M21351 21650
L21370 21593
L21389 21575
L21426 21556
L21483 21556
L21520 21575
L21539 21593
L21558 21631
L21558 21781
L21164 21781
L21164 21650
L21183 21612
L21201 21593
L21239 21575
L21276 21575
L21314 21593
L21333 21612
L21351 21650
L21351 21781
" />
<path d="M21558 21387
L21164 21387
" />
<path d="M21408 21350
L21558 21237
" />
<path d="M21295 21237
L21445 21387
" />
<path d="M21520 21068
L21539 21050
L21558 21068
L21539 21087
L21520 21068
L21558 21068
" />
<path d="M21314 21068
L21333 21050
L21351 21068
L21333 21087
L21314 21068
L21351 21068
" />
<path d="M21558 20881
L21164 20881
L21445 20750
L21164 20618
L21558 20618
" />
<path d="M21164 20243
L21164 20431
L21351 20450
L21333 20431
L21314 20393
L21314 20300
L21333 20262
L21351 20243
L21389 20225
L21483 20225
L21520 20243
L21539 20262
L21558 20300
L21558 20393
L21539 20431
L21520 20450
" />
<path d="M21558 19531
L21370 19662
" />
<path d="M21558 19756
L21164 19756
L21164 19606
L21183 19569
L21201 19550
L21239 19531
L21295 19531
L21333 19550
L21351 19569
L21370 19606
L21370 19756
" />
<path d="M21520 19362
L21539 19344
L21558 19362
L21539 19381
L21520 19362
L21558 19362
" />
<path d="M21314 19362
L21333 19344
L21351 19362
L21333 19381
L21314 19362
L21351 19362
" />
<path d="M21558 19175
L21164 19175
L21445 19044
L21164 18912
L21558 18912
" />
<path d="M21295 18556
L21558 18556
" />
<path d="M21145 18650
L21426 18744
L21426 18500
" />
<g transform="rotate(-90 23763 22007.9)">
<text x="23763" y="22204.7"
textLength="1126.64" font-size="524.934" lengthAdjust="spacingAndGlyphs"
text-anchor="middle" opacity="0">J11</text>
</g>
<path d="M23547 22326
L23828 22326
L23884 22345
L23922 22382
L23941 22439
L23941 22476
" />
<path d="M23941 21932
L23941 22157
" />
<path d="M23941 22045
L23547 22045
L23603 22082
L23641 22120
L23659 22157
" />
<path d="M23941 21557
L23941 21782
" />
<path d="M23941 21670
L23547 21670
L23603 21707
L23641 21745
L23659 21782
" />
<g transform="rotate(-90 20840 32380)">
<text x="20840" y="32576.9"
textLength="7388.36" font-size="524.934" lengthAdjust="spacingAndGlyphs"
text-anchor="middle" opacity="0">MIDI IN 2 - Bk:M5 R:M4</text>
</g>
<path d="M21018 35942
L20624 35942
L20905 35810
L20624 35679
L21018 35679
" />
<path d="M21018 35492
L20624 35492
" />
<path d="M21018 35304
L20624 35304
L20624 35210
L20643 35154
L20680 35117
L20718 35098
L20793 35079
L20849 35079
L20924 35098
L20961 35117
L20999 35154
L21018 35210
L21018 35304
" />
<path d="M21018 34910
L20624 34910
" />
<path d="M21018 34423
L20624 34423
" />
<path d="M21018 34236
L20624 34236
L21018 34011
L20624 34011
" />
<path d="M20661 33542
L20643 33523
L20624 33486
L20624 33392
L20643 33354
L20661 33336
L20699 33317
L20736 33317
L20793 33336
L21018 33561
L21018 33317
" />
<path d="M20868 32848
L20868 32548
" />
<path d="M20811 31930
L20830 31873
L20849 31855
L20886 31836
L20943 31836
L20980 31855
L20999 31873
L21018 31911
L21018 32061
L20624 32061
L20624 31930
L20643 31892
L20661 31873
L20699 31855
L20736 31855
L20774 31873
L20793 31892
L20811 31930
L20811 32061
" />
<path d="M21018 31667
L20624 31667
" />
<path d="M20868 31630
L21018 31517
" />
<path d="M20755 31517
L20905 31667
" />
<path d="M20980 31348
L20999 31330
L21018 31348
L20999 31367
L20980 31348
L21018 31348
" />
<path d="M20774 31348
L20793 31330
L20811 31348
L20793 31367
L20774 31348
L20811 31348
" />
<path d="M21018 31161
L20624 31161
L20905 31030
L20624 30898
L21018 30898
" />
<path d="M20624 30523
L20624 30711
L20811 30730
L20793 30711
L20774 30673
L20774 30580
L20793 30542
L20811 30523
L20849 30505
L20943 30505
L20980 30523
L20999 30542
L21018 30580
L21018 30673
L20999 30711
L20980 30730
" />
<path d="M21018 29811
L20830 29942
" />
<path d="M21018 30036
L20624 30036
L20624 29886
L20643 29849
L20661 29830
L20699 29811
L20755 29811
L20793 29830
L20811 29849
L20830 29886
L20830 30036
" />
<path d="M20980 29642
L20999 29624
L21018 29642
L20999 29661
L20980 29642
L21018 29642
" />
<path d="M20774 29642
L20793 29624
L20811 29642
L20793 29661
L20774 29642
L20811 29642
" />
<path d="M21018 29455
L20624 29455
L20905 29324
L20624 29192
L21018 29192
" />
<path d="M20755 28836
L21018 28836
" />
<path d="M20605 28930
L20886 29024
L20886 28780
" />
<g transform="rotate(-90 23763 32407.9)">
<text x="23763" y="32604.7"
textLength="1126.64" font-size="524.934" lengthAdjust="spacingAndGlyphs"
text-anchor="middle" opacity="0">J12</text>
</g>
<path d="M23547 32726
L23828 32726
L23884 32745
L23922 32782
L23941 32839
L23941 32876
" />
<path d="M23941 32332
L23941 32557
" />
<path d="M23941 32445
L23547 32445
L23603 32482
L23641 32520
L23659 32557
" />
<path d="M23584 32182
L23566 32164
L23547 32126
L23547 32032
L23566 31995
L23584 31976
L23622 31957
L23659 31957
L23716 31976
L23941 32201
L23941 31957
" />
<g transform="rotate(-90 24580 25920)">
<text x="24580" y="26116.9"
textLength="7388.36" font-size="524.934" lengthAdjust="spacingAndGlyphs"
text-anchor="middle" opacity="0">MIDI IN 3 - Bk:M5 R:M4</text>
</g>
<path d="M24758 29482
L24364 29482
L24645 29350
L24364 29219
L24758 29219
" />
<path d="M24758 29032
L24364 29032
" />
<path d="M24758 28844
L24364 28844
L24364 28750
L24383 28694
L24420 28657
L24458 28638
L24533 28619
L24589 28619
L24664 28638
L24701 28657
L24739 28694
L24758 28750
L24758 28844
" />
<path d="M24758 28450
L24364 28450
" />
<path d="M24758 27963
L24364 27963
" />
<path d="M24758 27776
L24364 27776
L24758 27551
L24364 27551
" />
<path d="M24364 27101
L24364 26857
L24514 26988
L24514 26932
L24533 26894
L24551 26876
L24589 26857
L24683 26857
L24720 26876
L24739 26894
L24758 26932
L24758 27044
L24739 27082
L24720 27101
" />
<path d="M24608 26388
L24608 26088
" />
<path d="M24551 25470
L24570 25413
L24589 25395
L24626 25376
L24683 25376
L24720 25395
L24739 25413
L24758 25451
L24758 25601
L24364 25601
L24364 25470
L24383 25432
L24401 25413
L24439 25395
L24476 25395
L24514 25413
L24533 25432
L24551 25470
L24551 25601
" />
<path d="M24758 25207
L24364 25207
" />
<path d="M24608 25170
L24758 25057
" />
<path d="M24495 25057
L24645 25207
" />
<path d="M24720 24888
L24739 24870
L24758 24888
L24739 24907
L24720 24888
L24758 24888
" />
<path d="M24514 24888
L24533 24870
L24551 24888
L24533 24907
L24514 24888
L24551 24888
" />
<path d="M24758 24701
L24364 24701
L24645 24570
L24364 24438
L24758 24438
" />
<path d="M24364 24063
L24364 24251
L24551 24270
L24533 24251
L24514 24213
L24514 24120
L24533 24082
L24551 24063
L24589 24045
L24683 24045
L24720 24063
L24739 24082
L24758 24120
L24758 24213
L24739 24251
L24720 24270
" />
<path d="M24758 23351
L24570 23482
" />
<path d="M24758 23576
L24364 23576
L24364 23426
L24383 23389
L24401 23370
L24439 23351
L24495 23351
L24533 23370
L24551 23389
L24570 23426
L24570 23576
" />
<path d="M24720 23182
L24739 23164
L24758 23182
L24739 23201
L24720 23182
L24758 23182
" />
<path d="M24514 23182
L24533 23164
L24551 23182
L24533 23201
L24514 23182
L24551 23182
" />
<path d="M24758 22995
L24364 22995
L24645 22864
L24364 22732
L24758 22732
" />
<path d="M24495 22376
L24758 22376
" />
<path d="M24345 22470
L24626 22564
L24626 22320
" />
<g transform="rotate(-90 23763 26807.9)">
<text x="23763" y="27004.7"
textLength="1126.64" font-size="524.934" lengthAdjust="spacingAndGlyphs"
text-anchor="middle" opacity="0">J13</text>
</g>
<path d="M23547 27126
L23828 27126
L23884 27145
L23922 27182
L23941 27239
L23941 27276
" />
<path d="M23941 26732
L23941 26957
" />
<path d="M23941 26845
L23547 26845
L23603 26882
L23641 26920
L23659 26957
" />
<path d="M23547 26601
L23547 26357
L23697 26489
L23697 26432
L23716 26395
L23734 26376
L23772 26357
L23866 26357
L23903 26376
L23922 26395
L23941 26432
L23941 26545
L23922 26582
L23903 26601
" />
<g >
</g>
</g>
<g style="fill:#000000; fill-opacity:0.0; 
stroke:#000000; stroke-width:59.0551; stroke-opacity:1; 
stroke-linecap:round; stroke-linejoin:round;">
<g >
</g>
<g >
</g>
<g >
</g>
<g >
</g>
<g >
</g>
<g >
</g>
<g >
</g>
<g >
</g>
<g >
</g>
<g >
</g>
<g >
</g>
<g >
</g>
<g >
</g>
<g >
</g>
<g >
</g>
<g >
</g>
<g >
</g>
<g >
</g>
<g >
</g>
<g >
</g>
<g >
</g>
<g >
</g>
<g >
</g>
<g >
</g>
<g >
</g>
<g >
</g>
<g >
</g>
<g >
</g>
<g >
</g>
<g >
</g>
<g >
</g>
<g >
</g>
<g >
</g>
<g >
</g>
<g >
</g>
</g> 
</svg>
